<svg width="4702" height="1063" viewBox="0 0 4702 1063" fill="none" xmlns="http://www.w3.org/2000/svg">
<mask id="mask0_1093_388" style="mask-type:luminance" maskUnits="userSpaceOnUse" x="0" y="0" width="4702" height="1063">
<path d="M4701.33 0H0V1062.67H4701.33V0Z" fill="white"/>
</mask>
<g mask="url(#mask0_1093_388)">
<mask id="mask1_1093_388" style="mask-type:luminance" maskUnits="userSpaceOnUse" x="2843" y="152" width="625" height="625">
<path d="M2843.42 152.396H3467.22V776.193H2843.42V152.396Z" fill="white"/>
</mask>
<g mask="url(#mask1_1093_388)">
<path d="M3330.82 569.188C3330.79 569.214 3330.76 569.234 3330.73 569.26C3330.68 569.302 3330.64 569.333 3330.61 569.354L3330.55 569.328L3330.81 569.188H3330.82ZM3330.61 569.354C3331.79 569.729 3332.66 570.073 3333.23 570.401C3333.52 570.615 3333.74 570.828 3333.92 571.042L3334.04 571.203C3334.11 571.313 3334.17 571.422 3334.22 571.531C3334.41 571.964 3334.39 572.474 3334.15 573.068C3333.96 573.438 3333.84 573.661 3333.77 573.745C3333.26 574.396 3332.9 574.807 3332.68 574.979C3331.85 575.677 3331.16 576.026 3330.59 576.026C3330.57 576.026 3330.55 576.026 3330.53 576.026C3330.13 576.005 3329.84 575.922 3329.68 575.771C3329.48 575.62 3329.3 575.391 3329.16 575.099C3329.11 575.047 3329.03 574.781 3328.9 574.307L3328.86 573.599L3328.88 572.932L3328.96 572.302L3329.09 571.714L3329.29 571.167L3329.54 570.651L3329.84 570.182L3330.2 569.75L3330.61 569.354ZM3359.81 555.573C3360.55 555.573 3361.1 555.943 3361.48 556.682L3366.29 576.448C3366.23 577.505 3366.17 578.13 3366.09 578.333C3365.88 579.193 3365.5 579.719 3364.95 579.901C3364.86 579.995 3364.71 580.047 3364.5 580.047C3364 580.047 3363.18 579.776 3362.02 579.245H3362.01C3362.4 581.188 3362.56 582.62 3362.48 583.552L3360.24 590.688L3358.97 597.51L3358.61 598.63C3357.94 600.344 3357.24 601.661 3356.53 602.583C3355.88 603.604 3354.26 605.443 3351.68 608.094C3351.21 608.745 3350.88 609.354 3350.67 609.911C3350.27 611.141 3350.03 612.12 3349.93 612.844C3349.56 619.286 3348.96 624.214 3348.14 627.62C3347.67 629.234 3346.43 632.109 3344.41 636.245L3342.52 643.036C3342.3 643.563 3341.81 644.047 3341.02 644.49C3337.72 644.964 3335.93 645.292 3335.65 645.484L3329.26 648.807C3328.92 648.76 3328.55 648.5 3328.15 648.031C3326.27 644.552 3324.29 641.745 3322.19 639.615C3321.67 638.875 3321.31 637.688 3321.09 636.052C3321 626.458 3320.65 620.833 3320.03 619.167C3319.8 618.969 3320.89 615.797 3323.31 609.661C3324.02 606.818 3324.57 604.099 3324.98 601.5C3325.31 599.052 3325.48 597.193 3325.47 595.927C3325.53 594.932 3325.22 592.792 3324.57 589.49C3324.49 588.911 3324.53 588.151 3324.7 587.219C3325.31 586.255 3327.94 584.276 3332.57 581.276C3333.85 580.771 3335.24 580.521 3336.74 580.521C3337.64 580.521 3338.56 580.609 3339.53 580.786C3340.3 580.526 3340.99 580.094 3341.61 579.484C3345.29 576.068 3347.44 573.714 3348.07 572.427C3348.72 571.417 3349.11 569.349 3349.22 566.234C3349.29 565.807 3349.56 565.224 3350.04 564.469C3350.64 563.849 3351.99 562.833 3354.14 561.432C3356.88 557.615 3358.49 555.708 3358.96 555.708C3358.97 555.708 3358.97 555.708 3358.97 555.708L3359.24 555.635C3359.44 555.594 3359.63 555.573 3359.81 555.573ZM3108.67 225.318C3111.11 225.453 3113.05 227.193 3114.48 230.542C3115.13 232.375 3114.84 234.568 3113.64 237.12C3116.04 239.661 3117.29 241.479 3117.39 242.573C3117.64 244.057 3117.69 245.12 3117.58 245.766C3117.44 247.125 3117.01 248.714 3116.29 250.526C3116.21 250.87 3116.2 251.458 3116.27 252.286C3116.78 255.344 3117.7 257.25 3119.03 258.005C3120.87 259.25 3122.39 259.964 3123.59 260.146C3129.77 260.292 3133.29 260.51 3134.16 260.802C3134.18 260.797 3134.21 260.792 3134.23 260.792C3134.82 260.792 3136.67 261.964 3139.78 264.313C3144.16 265.208 3146.6 265.828 3147.11 266.167C3147.85 266.568 3148.31 267.146 3148.51 267.917L3148.26 273.146C3148.44 273.901 3148.84 274.396 3149.45 274.635C3151.15 274.589 3152.59 274.568 3153.78 274.568C3155.78 274.568 3157.05 274.63 3157.6 274.755C3163.11 276.885 3167.6 278.208 3171.07 278.719V278.714C3172.73 276.344 3173.53 271.792 3173.46 265.057H3173.47L3173.98 267.74V267.734C3174.17 267.13 3174.4 266.557 3174.68 266.021H3174.69C3174.77 265.688 3174.86 265.37 3174.96 265.068C3175.97 262.865 3176.72 261.703 3177.2 261.583C3178.54 260.448 3180.35 259.823 3182.67 259.698L3182.89 259.693C3183 259.682 3183.12 259.677 3183.24 259.677C3184.32 259.677 3185.9 260.078 3187.96 260.885C3190.05 261.63 3192.81 263.453 3196.24 266.349L3202.19 268.224C3202.89 268.677 3203.66 269.776 3204.52 271.526C3204.71 271.745 3204.96 271.885 3205.26 271.938C3207.55 271.641 3209.11 271.495 3209.93 271.495C3210.15 271.495 3210.31 271.505 3210.43 271.526C3220.91 273.26 3226.92 274.125 3228.44 274.125C3228.6 274.125 3228.7 274.115 3228.77 274.099C3228.8 274.099 3228.84 274.099 3228.87 274.099C3230.38 274.099 3232.05 273.859 3233.89 273.385C3237.14 271.74 3239.47 270.828 3240.91 270.646C3251.03 270.781 3258.42 271.135 3263.09 271.714C3264.43 271.984 3265.39 272.802 3265.96 274.172C3266.26 274.505 3266.44 275.24 3266.51 276.375H3266.52L3274.09 287.12C3274.61 288.62 3274.2 290.38 3272.84 292.396C3270.4 295.604 3268.45 297.208 3267.02 297.208C3266.88 297.208 3266.74 297.193 3266.61 297.161L3257.29 287.354C3256.61 287.12 3256.04 287 3255.55 287C3254.34 287 3253.68 287.719 3253.57 289.161H3253.58C3254.54 289.51 3255.33 290.208 3255.94 291.255C3259.42 298.609 3261.84 304.505 3263.19 308.953C3266.24 312.719 3269.05 317.036 3271.61 321.917L3274.14 330.87C3279.51 335.771 3282.52 339.26 3283.17 341.339C3283.7 341.948 3283.91 345.177 3283.78 351.021H3283.79C3285.06 353.927 3286.19 357.026 3287.19 360.323H3287.2L3296.16 368.708C3296.91 369.807 3297.73 372.766 3298.63 377.578C3298.92 378.391 3299.27 379.036 3299.67 379.51L3319.01 397.104C3319.66 400.896 3322.06 405.464 3326.21 410.807C3326.92 411.849 3328.98 412.37 3332.39 412.37C3333.31 412.37 3334.33 412.333 3335.44 412.255H3335.45L3333.06 414.292L3369.31 406.635C3369.66 406.604 3369.99 406.594 3370.3 406.594C3372.39 406.594 3373.64 407.255 3374.05 408.573C3374.73 410.443 3374.78 412.792 3374.2 415.615C3371.65 423.51 3369.35 428.828 3367.32 431.557C3362.37 440.073 3354.89 450.51 3344.88 462.859L3321.97 478.781C3316.51 486.349 3310.06 493.005 3302.64 498.75C3299.36 503.786 3297.08 509.609 3295.77 516.219C3295.52 519.594 3296.53 521.932 3298.81 523.25L3298.5 523.734H3298.51C3299.61 524.776 3300.19 525.583 3300.24 526.161C3298.27 533.068 3297.51 536.948 3297.97 537.813C3302.99 542.589 3305.7 546.042 3306.09 548.172C3307.2 565.609 3307.39 575.125 3306.67 576.719C3305.7 579.104 3303.68 581.5 3300.61 583.906C3299.05 585.589 3292.98 589.177 3282.4 594.677C3281.36 595.563 3278.76 598.891 3274.56 604.661C3272.32 608.818 3271.23 612.432 3271.3 615.505C3271.14 618.01 3271.89 623.568 3273.54 632.182C3273.68 633.604 3273.34 635.349 3272.54 637.417C3271.58 639.635 3266.78 643.198 3258.14 648.109C3257.29 649.443 3256.26 654.896 3255.05 664.458C3254.71 665.958 3254.09 667.651 3253.19 669.526L3247.35 675.641C3245.16 680.323 3243.31 683.599 3241.8 685.464L3234.39 693.12L3231.56 698.797C3225.36 705.089 3219.95 709.406 3215.31 711.745L3207.14 710.729C3205.06 710.927 3202.17 711.771 3198.48 713.26C3193.81 712.703 3190.63 712.422 3188.92 712.422C3188.41 712.422 3188.04 712.448 3187.79 712.495L3176.4 717.255L3163.66 709.521L3161.88 705.286H3161.88C3161.21 704.641 3160.53 703.943 3159.84 703.193C3158.38 699.693 3158.27 693.755 3159.52 685.38L3145.22 661.677L3135.99 620.818L3120.53 586.599C3119.36 572.167 3123.94 559.724 3134.24 549.271C3131.54 545.844 3129.63 542.359 3128.51 538.823C3127.22 536.198 3127.06 531.693 3128.02 525.302L3125.51 520C3125.43 519.839 3125.35 519.677 3125.27 519.516L3125.28 519.51C3124.55 518.995 3123.82 518.396 3123.1 517.719C3121.98 516.552 3121.18 515.604 3120.71 514.87C3117.3 509.313 3115.44 506.375 3115.12 506.047C3114.92 505.521 3111.93 502.188 3106.14 496.042C3105.02 494.688 3104.2 493.563 3103.68 492.661C3103.14 491.714 3102.76 490.766 3102.55 489.833C3102.3 488.198 3102.3 487.036 3102.55 486.354C3102.8 485.474 3103.31 484.339 3104.06 482.943H3104.07C3104.72 479.438 3105.99 474.583 3107.9 468.38C3107.68 466.542 3107.3 464.771 3106.73 463.068L3103.66 455.875C3102.53 455.276 3100.28 454.974 3096.91 454.974C3093.91 454.974 3090.03 455.214 3085.26 455.693C3080.88 446.083 3075.84 440.641 3070.14 439.365C3066.51 439.813 3062.88 440.484 3059.24 441.38L3047.97 447.865C3045.31 449.177 3043.28 449.901 3041.86 450.036C3041.27 450.161 3038.9 450.438 3034.76 450.865C3034.53 450.984 3034.29 451.109 3034.06 451.24C3033.48 451.286 3032.85 451.313 3032.14 451.313C3031.7 451.313 3031.22 451.302 3030.73 451.286L3030.72 451.281L3027.93 451.792L3022.74 452.849C3021.93 452.995 3021.07 453.104 3020.17 453.172C3019.91 453.193 3019.6 453.198 3019.26 453.198C3018.92 453.198 3018.54 453.193 3018.11 453.172C3014.91 452.953 3011.32 452.76 3007.34 452.599L2998.72 452.938C2998.11 452.875 2997.52 452.797 2996.93 452.708L2992.35 454.203L2966.44 434.854L2951.29 414.552L2951.3 414.547C2946.13 410.078 2942.68 406.865 2940.95 404.906C2940.11 403.563 2939.41 401.469 2938.86 398.625C2937.95 393.234 2937.61 389.615 2937.85 387.766C2938.34 384.734 2939.65 381.406 2941.79 377.786L2941.8 377.781C2943 369.422 2944.78 364.854 2947.13 364.078C2946.21 363.474 2945.4 362.323 2944.69 360.62L2944.7 360.615C2944.03 359.938 2943.37 359.224 2942.73 358.469C2941.74 353.896 2941.01 350.089 2940.54 347.052L2940.33 346.615C2939.73 345.229 2939.25 343.964 2938.89 342.818C2938.18 340.521 2937.95 338.693 2938.22 337.339C2938.48 336.224 2938.95 335.255 2939.65 334.432L2947.1 326.469C2947.48 326.01 2948.15 323.714 2949.11 319.583C2949.34 318.901 2949.74 318.115 2950.29 317.224C2950.7 316.568 2952.7 314.776 2956.3 311.849C2958.51 307.755 2960.92 303.948 2963.52 300.427C2967.41 295.266 2969.98 292.479 2971.21 292.063L2978.78 287.656H2978.78C2982.38 282.932 2984.39 276.786 2984.83 269.214C2989.7 265.552 2993.05 261.479 2994.87 257.01L3002.35 251.026C3004.32 245.521 3005.88 242.318 3007 241.417C3008.4 240.234 3009.96 239.615 3011.7 239.557C3014.3 241.979 3019.57 243.188 3027.52 243.188C3030.05 243.188 3032.86 243.063 3035.94 242.818C3043.26 237.089 3053.44 232.026 3066.48 227.635C3071.51 229.135 3077.36 229.891 3084.03 229.891C3089.96 229.891 3096.55 229.292 3103.78 228.104L3104.62 227.969L3105.61 226.24C3106.57 225.693 3107.48 225.391 3108.34 225.328L3108.67 225.318ZM3156.28 152.573C3067.65 154.813 2993.9 185.359 2935.05 244.214C2876.19 303.068 2845.64 376.818 2843.41 465.453C2843.49 494.333 2847.21 522.057 2854.58 548.625L2867.99 587.24C2878.63 612.276 2892.17 635.411 2908.6 656.641C2959.88 722.323 3028.29 761.938 3113.83 775.474C3128.07 777.01 3142.03 777.781 3155.68 777.781C3227.92 777.781 3291.85 756.234 3347.47 713.135C3413.16 661.854 3452.77 593.443 3466.31 507.906L3469.16 465.453C3466.93 376.818 3436.38 303.068 3377.52 244.214C3318.67 185.359 3244.92 154.813 3156.28 152.573Z" fill="#58595B"/>
</g>
<path d="M3204.62 325.286C3204.62 372.005 3137.22 404.276 3137.22 452.74C3137.22 489.99 3167.37 520.135 3204.62 520.135C3241.87 520.135 3272.02 489.99 3272.02 452.74C3272.02 404.401 3204.62 349.333 3204.62 325.286ZM3267.91 450.495C3267.91 450.495 3266.79 451.12 3265.17 450.87C3263.3 450.495 3262.68 449.5 3262.68 449.5C3262.68 449.5 3263.8 448.625 3265.67 449.125C3267.04 449.375 3267.91 450.495 3267.91 450.495ZM3267.41 444.766C3267.41 444.766 3264.92 446.51 3261.18 446.01C3256.95 445.51 3255.2 443.271 3255.2 443.271C3255.2 443.271 3257.57 441.026 3262.05 441.776C3265.42 442.396 3267.41 444.766 3267.41 444.766ZM3237.51 487.125C3237.64 487.995 3238.01 488.37 3238.01 488.37C3238.01 488.37 3236.14 487.995 3235.52 486.125C3234.52 484.01 3235.52 481.641 3236.52 480.896C3236.52 480.896 3237.39 481.641 3237.64 484.01C3237.76 485.75 3237.39 486.25 3237.51 487.125ZM3233.53 468.438C3233.53 468.438 3236.52 468.557 3240.63 472.797C3243.74 476.037 3243.61 477.656 3245.23 479.151C3246.85 480.646 3248.22 480.771 3248.22 480.771C3248.22 480.771 3243.99 483.01 3239.63 480.521C3234.77 477.781 3232.9 471.552 3233.53 468.438ZM3239.13 464.948C3239.13 464.948 3240.88 464.323 3244.36 465.693C3246.98 466.693 3247.35 467.688 3248.72 468.188C3250.09 468.682 3250.84 468.313 3250.84 468.313C3250.84 468.313 3248.97 470.552 3245.73 470.177C3242.24 469.932 3239.63 466.818 3239.13 464.948ZM3243.86 462.953C3234.4 462.953 3226.55 455.729 3225.05 450.995C3225.05 450.995 3229.41 448.75 3239.01 451.49C3246.1 453.484 3247.48 455.979 3250.96 456.724C3254.45 457.599 3256.57 456.599 3256.57 456.599C3256.57 456.599 3252.21 463.078 3243.86 462.953ZM3237.64 434.297C3239.88 432.182 3246.23 430.438 3251.34 433.052C3255.82 435.422 3256.2 440.281 3256.2 440.281C3256.2 440.281 3255.33 439.031 3253.21 438.537C3251.09 438.037 3249.59 438.912 3245.23 438.037C3239.26 436.792 3237.64 434.297 3237.64 434.297ZM3240.5 446.755C3240.5 446.755 3240.13 445.51 3238.26 444.266C3236.39 443.146 3234.77 443.641 3230.91 441.401C3225.68 438.412 3224.93 435.547 3224.93 435.547C3227.67 434.177 3234.27 434.422 3238.14 438.537C3241.74 442.026 3240.5 446.755 3240.5 446.755ZM3231.78 431.682C3227.42 431.557 3223.81 428.068 3223.18 425.703C3223.18 425.703 3225.18 424.708 3229.54 426.078C3232.78 427.073 3233.4 428.318 3235.02 428.693C3236.64 429.068 3237.64 428.693 3237.64 428.693C3237.64 428.693 3235.52 431.807 3231.78 431.682ZM3225.18 420.844C3223.56 420.469 3222.44 421.219 3219.07 420.469C3214.59 419.474 3213.34 417.604 3213.34 417.604C3215.08 415.984 3219.82 414.615 3223.81 416.609C3227.17 418.354 3227.42 422.089 3227.42 422.089C3227.42 422.089 3226.8 421.219 3225.18 420.844ZM3219.82 406.516C3218.2 406.641 3217.33 407.641 3213.96 408.01C3209.35 408.385 3207.61 407.016 3207.61 407.016C3208.73 404.896 3212.97 402.156 3217.2 402.906C3220.94 403.526 3222.31 407.016 3222.31 407.016C3222.31 407.016 3221.44 406.391 3219.82 406.516ZM3221.81 398.667C3217.7 400.537 3215.58 399.792 3215.58 399.792C3215.96 397.547 3219.07 393.563 3223.31 392.813C3227.17 392.188 3229.54 395.057 3229.54 395.057C3229.54 395.057 3228.42 394.682 3226.92 395.302C3225.3 395.927 3224.93 397.297 3221.81 398.667ZM3218.07 389.823C3213.22 394.682 3205.37 394.932 3202.13 393.313C3202.13 393.313 3203.25 389.948 3209.6 386.333C3214.34 383.719 3216.33 384.219 3218.57 382.844C3220.82 381.474 3221.44 379.854 3221.44 379.854C3221.44 379.854 3222.56 385.464 3218.07 389.823ZM3203.13 397.672C3208.98 396.302 3212.97 398.417 3212.97 398.417C3212.97 398.417 3210.47 402.406 3205.37 404.026C3198.64 406.021 3194.65 403.151 3194.65 403.151C3194.65 403.151 3196.65 399.417 3203.13 397.672ZM3205.37 409.01C3210.47 410.63 3212.97 414.615 3212.97 414.615C3212.97 414.615 3208.98 416.859 3203.13 415.365C3196.77 413.62 3194.65 409.88 3194.65 409.88C3194.65 409.88 3198.64 407.016 3205.37 409.01ZM3218.07 425.078C3222.56 429.443 3221.44 435.047 3221.44 435.047C3221.44 435.047 3220.82 433.427 3218.57 432.057C3216.33 430.688 3214.34 431.182 3209.6 428.568C3203.25 424.953 3202.13 421.594 3202.13 421.594C3205.37 419.974 3213.09 420.344 3218.07 425.078ZM3223.81 439.531C3228.42 442.271 3229.79 446.755 3229.79 446.755C3229.79 446.755 3225.3 447.88 3220.07 445.016C3214.34 441.901 3213.22 437.662 3213.22 437.662C3213.22 437.662 3217.7 435.917 3223.81 439.531ZM3252.96 450.87C3247.35 449.87 3243.49 444.516 3242.99 441.526C3242.99 441.526 3245.73 440.526 3251.21 443.146C3255.2 445.141 3255.82 446.755 3257.82 447.63C3259.81 448.5 3261.18 448.13 3261.18 448.13C3261.18 448.13 3257.94 451.74 3252.96 450.87ZM3260.81 439.281C3258.32 439.406 3257.07 438.162 3257.07 438.162C3257.07 438.162 3258.19 436.667 3260.93 436.667C3263.05 436.667 3264.42 437.912 3264.42 437.912C3264.42 437.912 3263.18 439.156 3260.81 439.281ZM3264.17 434.297C3264.17 434.297 3262.05 435.297 3259.19 434.422C3256.07 433.552 3255.08 431.557 3255.08 431.557C3255.08 431.557 3257.07 430.188 3260.43 431.307C3263.18 432.182 3264.17 434.297 3264.17 434.297ZM3261.06 426.448C3261.06 426.448 3254.95 430.438 3245.61 428.943C3235.39 427.323 3231.41 421.594 3231.41 421.594C3231.41 421.594 3237.26 416.484 3248.22 418.724C3256.45 420.344 3261.06 426.448 3261.06 426.448ZM3255.7 416.734C3255.7 416.734 3253.83 415.115 3249.84 414.74C3245.86 414.365 3243.61 416.609 3235.52 416.359C3224.55 416.109 3220.69 412.375 3220.69 412.375C3223.93 408.01 3234.52 402.906 3244.36 405.896C3253.33 408.51 3255.7 416.734 3255.7 416.734ZM3235.27 402.781C3228.91 404.526 3224.43 402.031 3224.43 402.031C3224.43 402.031 3227.17 397.547 3232.78 395.927C3240.25 393.682 3244.61 396.797 3244.61 396.797C3244.61 396.797 3242.37 401.037 3235.27 402.781ZM3238.01 387.578C3238.01 387.578 3238.14 390.323 3235.89 391.943C3233.28 393.807 3229.54 393.188 3228.17 392.188C3228.17 392.188 3228.91 390.693 3232.15 389.573C3234.52 388.703 3235.39 389.198 3236.52 388.703C3237.76 388.203 3238.01 387.578 3238.01 387.578ZM3235.02 381.724C3235.02 381.724 3234.52 384.964 3230.41 387.953C3226.8 390.448 3223.31 390.073 3223.31 390.073C3223.31 390.073 3223.93 386.583 3227.17 384.094C3231.41 380.854 3235.02 381.724 3235.02 381.724ZM3225.43 377.615C3227.17 376.37 3229.04 376.99 3229.04 376.99C3229.04 376.99 3228.54 377.115 3227.92 377.865C3227.42 378.609 3227.54 379.359 3226.42 380.854C3225.05 382.844 3223.81 383.094 3223.81 383.094C3223.31 381.849 3223.68 379.109 3225.43 377.615ZM3218.32 364.906C3219.2 363.411 3220.44 363.162 3220.44 363.162C3220.44 363.162 3220.69 364.281 3219.82 365.651C3218.95 367.026 3217.83 367.271 3217.83 367.271C3217.83 367.271 3217.58 366.151 3218.32 364.906ZM3219.32 368.891C3221.56 367.151 3223.43 367.646 3223.43 367.646C3223.43 367.646 3223.18 369.391 3221.07 370.885C3219.2 372.38 3217.33 372.13 3217.33 372.13C3217.33 372.13 3217.7 370.266 3219.32 368.891ZM3215.58 359.672C3215.58 359.672 3215.08 359.797 3214.46 360.547C3213.96 361.292 3214.09 362.042 3212.97 363.537C3211.6 365.531 3210.35 365.776 3210.35 365.776C3209.85 364.531 3210.22 361.792 3211.97 360.297C3213.84 359.052 3215.58 359.672 3215.58 359.672ZM3215.58 370.016C3213.84 373.625 3209.6 375.37 3207.48 375.245C3207.48 375.245 3207.36 373.13 3210.22 369.891C3212.34 367.521 3213.46 367.396 3214.46 366.151C3215.46 364.906 3215.46 363.912 3215.46 363.912C3215.46 363.912 3217.2 366.776 3215.58 370.016ZM3209.85 355.313C3210.35 353.568 3211.1 353.193 3211.22 352.323C3211.47 351.453 3211.22 350.953 3211.22 350.953C3211.22 350.953 3212.97 352.073 3212.84 354.193C3212.97 356.432 3210.97 358.427 3209.73 358.802C3209.73 358.802 3209.1 357.682 3209.85 355.313ZM3201.26 352.198C3202.38 345.099 3206.74 342.854 3206.74 342.854C3206.74 342.854 3209.23 346.469 3207.98 352.948C3206.74 358.802 3203 361.542 3203 361.542C3203 361.542 3200.39 357.557 3201.26 352.198ZM3196.9 361.667C3197.27 359.922 3197.77 359.547 3198.02 358.677C3198.14 357.807 3197.89 357.307 3197.89 357.307C3197.89 357.307 3199.51 358.177 3199.64 360.297C3199.64 362.537 3198.14 364.531 3197.02 365.031C3197.15 365.031 3196.52 364.037 3196.9 361.667ZM3200.26 365.901C3203.99 362.292 3208.85 363.412 3208.85 363.412C3208.85 363.412 3207.48 363.912 3206.24 365.776C3204.99 367.771 3205.49 369.516 3203.25 373.5C3200.26 378.984 3197.27 379.854 3197.27 379.854C3195.65 376.865 3196.03 370.016 3200.26 365.901ZM3194.41 364.531C3194.41 364.531 3194.16 364.906 3194.28 365.651C3194.41 366.276 3194.9 366.651 3195.15 368.021C3195.53 370.016 3195.03 370.76 3195.03 370.76C3194.16 370.385 3192.79 368.766 3192.91 366.901C3193.03 365.281 3194.41 364.531 3194.41 364.531ZM3189.67 377.615C3190.04 374.5 3190.92 373.75 3190.92 372.255C3191.04 370.76 3190.42 370.016 3190.42 370.016C3190.42 370.016 3193.41 371.26 3194.03 374.75C3194.65 378.609 3192.29 382.349 3190.42 383.344C3190.42 383.344 3189.17 381.724 3189.67 377.615ZM3186.31 376.74C3186.31 376.74 3185.93 377.365 3186.06 378.609C3186.31 379.729 3187.05 380.354 3187.55 382.724C3188.18 385.958 3187.3 387.333 3187.3 387.333C3185.68 386.583 3183.44 383.719 3183.69 380.729C3183.94 377.99 3186.31 376.74 3186.31 376.74ZM3183.81 385.839C3184.81 387.703 3184.19 390.073 3183.44 390.943C3183.44 390.943 3182.44 390.323 3181.95 388.203C3181.57 386.583 3181.95 385.958 3181.7 385.214C3181.45 384.464 3181.07 384.094 3181.07 384.094C3181.07 384.094 3182.94 384.094 3183.81 385.839ZM3177.83 386.458C3177.83 386.458 3179.95 386.958 3181.32 389.823C3182.32 392.068 3181.7 394.057 3181.7 394.057C3181.7 394.057 3179.7 393.313 3178.58 390.943C3177.21 388.328 3177.83 386.458 3177.83 386.458ZM3178.21 392.688C3179.45 395.182 3178.71 398.417 3177.71 399.542C3177.71 399.542 3176.46 398.792 3175.72 395.802C3175.22 393.682 3175.59 392.938 3175.34 391.818C3174.97 390.818 3174.47 390.448 3174.47 390.448C3174.47 390.448 3176.96 390.568 3178.21 392.688ZM3172.85 395.057C3172.85 395.057 3175.47 396.427 3176.21 400.787C3176.71 404.026 3175.09 406.516 3175.09 406.516C3175.09 406.516 3172.72 404.771 3172.1 401.287C3171.35 397.297 3172.85 395.057 3172.85 395.057ZM3177.71 473.917C3167.37 474.787 3162.14 470.302 3162.14 470.302C3162.14 470.302 3166.49 463.948 3177.71 463.328C3186.18 462.828 3192.04 467.563 3192.04 467.563C3192.04 467.563 3186.93 473.047 3177.71 473.917ZM3193.91 474.787C3193.03 479.026 3187.18 486 3179.08 487C3171.98 487.995 3167.62 482.885 3167.62 482.885C3167.62 482.885 3169.36 483.51 3172.35 482.391C3175.34 481.391 3176.21 479.151 3182.07 476.656C3189.92 473.417 3193.91 474.787 3193.91 474.787ZM3156.78 446.26C3159.27 446.01 3161.52 447.63 3162.14 448.875C3162.14 448.875 3161.02 449.625 3158.53 449.125C3156.66 448.875 3156.16 448.255 3155.16 448.13C3154.16 448.005 3153.67 448.375 3153.67 448.375C3153.67 448.375 3154.54 446.51 3156.78 446.26ZM3149.06 436.542C3149.06 436.542 3153.79 433.802 3161.14 436.667C3166.74 438.912 3169.11 443.641 3169.11 443.641C3169.11 443.641 3164.38 445.76 3158.03 443.521C3151.05 441.026 3149.06 436.542 3149.06 436.542ZM3159.52 452.984C3160.77 453.484 3161.77 452.984 3164.51 453.859C3168.11 455.104 3169.11 456.724 3169.11 456.724C3167.62 457.844 3163.51 458.594 3160.52 456.599C3157.78 454.729 3157.78 451.74 3157.78 451.74C3157.78 451.74 3158.03 452.49 3159.52 452.984ZM3169.36 461.708C3169.36 461.708 3167.74 464.198 3162.01 465.818C3157.65 466.943 3156.28 466.193 3154.16 466.818C3152.05 467.438 3151.3 468.682 3151.3 468.682C3151.3 468.682 3151.55 463.948 3155.91 461.333C3160.77 458.469 3166.99 459.714 3169.36 461.708ZM3176.84 457.474C3170.98 454.979 3170.11 452.74 3167.12 451.74C3164.13 450.62 3162.39 451.245 3162.39 451.245C3162.39 451.245 3166.74 446.135 3173.85 447.13C3181.82 448.255 3187.8 455.229 3188.67 459.339C3188.67 459.339 3184.69 460.714 3176.84 457.474ZM3181.45 445.51C3181.45 445.51 3178.33 445.76 3173.35 441.651C3169.73 438.662 3169.49 436.917 3167.62 435.547C3165.75 434.177 3164.26 434.297 3164.26 434.297C3164.26 434.297 3168.36 431.557 3173.35 433.802C3178.83 436.167 3181.7 442.396 3181.45 445.51ZM3162.39 420.969C3160.52 419.599 3159.02 419.599 3159.02 419.599C3159.02 419.599 3163.14 416.859 3168.11 419.099C3173.72 421.594 3176.46 427.823 3176.21 430.938C3176.21 430.938 3173.1 431.182 3168.11 427.073C3164.51 424.083 3164.26 422.339 3162.39 420.969ZM3173.22 406.516C3173.22 406.516 3172.6 407.141 3172.6 408.51C3172.6 409.88 3173.35 410.505 3173.35 413.245C3173.47 416.859 3172.23 418.229 3172.23 418.229C3170.73 417.229 3168.86 413.745 3169.73 410.38C3170.48 407.391 3173.22 406.516 3173.22 406.516ZM3170.73 401.037C3171.6 403.526 3170.73 406.391 3169.73 407.266C3169.73 407.266 3168.74 406.266 3168.36 403.401C3168.11 401.287 3168.49 400.662 3168.36 399.667C3168.24 398.667 3167.74 398.172 3167.74 398.172C3167.74 398.172 3169.73 398.667 3170.73 401.037ZM3167.87 406.391C3168.86 408.385 3168.36 410.63 3167.74 411.5C3167.74 411.5 3166.87 410.875 3166.25 408.635C3165.75 407.016 3166.13 406.516 3165.88 405.646C3165.63 404.896 3165.25 404.526 3165.25 404.526C3165.25 404.526 3166.87 404.771 3167.87 406.391ZM3161.14 406.891C3161.14 406.891 3161.27 407.641 3162.14 408.635C3163.01 409.63 3163.88 409.63 3165.75 411.5C3168.24 413.99 3168.36 415.734 3168.36 415.734C3166.74 415.984 3163.38 414.74 3161.64 411.875C3160.15 409.26 3161.14 406.891 3161.14 406.891ZM3158.77 413.62C3160.39 413.99 3161.39 415.609 3161.52 416.484C3161.52 416.484 3160.64 416.609 3159.02 415.609C3157.9 414.865 3157.78 414.49 3157.15 414.115C3156.53 413.745 3156.16 413.87 3156.16 413.87C3156.16 413.87 3157.28 413.12 3158.77 413.62ZM3158.15 421.469C3162.76 423.583 3165 428.693 3164.88 431.432C3164.88 431.432 3162.26 431.557 3158.15 428.193C3155.04 425.703 3154.91 424.208 3153.29 423.089C3151.67 421.964 3150.55 421.964 3150.55 421.964C3150.55 421.964 3154.04 419.724 3158.15 421.469ZM3148.31 426.078C3148.31 426.078 3148.56 426.948 3149.68 427.573C3150.8 428.193 3151.67 427.948 3154.04 429.318C3157.15 431.063 3157.65 432.802 3157.65 432.802C3156.03 433.552 3152.17 433.302 3149.8 430.938C3147.69 428.818 3148.31 426.078 3148.31 426.078ZM3148.68 432.307C3150.3 433.052 3150.92 434.547 3150.92 434.547C3150.92 434.547 3149.43 435.047 3147.69 434.297C3145.57 433.427 3145.07 432.057 3145.07 432.057C3145.07 432.057 3146.56 431.307 3148.68 432.307ZM3146.69 437.167C3148.43 437.787 3149.18 439.156 3149.18 439.156C3149.18 439.156 3147.81 439.906 3145.94 439.156C3143.82 438.537 3143.08 437.292 3143.08 437.292C3143.08 437.292 3144.32 436.417 3146.69 437.167ZM3142.58 439.031C3142.58 439.031 3142.95 439.781 3144.2 440.526C3145.44 441.276 3146.44 440.901 3149.06 442.146C3152.54 443.891 3153.29 445.635 3153.29 445.635C3151.67 446.635 3147.44 446.635 3144.57 444.266C3142.08 442.026 3142.58 439.031 3142.58 439.031ZM3143.7 448.375C3145.07 448.875 3146.19 448.255 3149.18 449.125C3153.17 450.245 3154.29 451.99 3154.29 451.99C3152.67 453.359 3148.18 454.234 3144.94 452.24C3141.83 450.37 3141.7 447.13 3141.7 447.13C3141.7 447.13 3142.08 447.88 3143.7 448.375ZM3143.32 455.854C3145.19 455.979 3146.19 455.104 3149.93 455.229C3154.91 455.479 3156.66 457.224 3156.66 457.224C3155.16 459.214 3150.3 461.458 3145.82 459.964C3141.7 458.594 3140.71 454.854 3140.71 454.854C3140.71 454.854 3141.58 455.729 3143.32 455.854ZM3141.58 463.328C3141.58 463.328 3143.32 461.583 3146.94 461.958C3149.68 462.208 3151.3 464.073 3151.3 464.073C3151.3 464.073 3149.43 465.568 3146.31 465.323C3142.95 465.073 3141.58 463.328 3141.58 463.328ZM3142.83 471.177C3142.83 471.177 3142.83 469.432 3144.32 468.438C3146.19 467.313 3148.43 467.688 3149.31 468.313C3149.31 468.313 3148.81 469.182 3146.69 469.932C3145.19 470.427 3144.57 470.177 3143.82 470.427C3143.08 470.677 3142.83 471.177 3142.83 471.177ZM3144.2 473.292C3144.2 473.292 3145.07 473.792 3146.69 473.542C3148.31 473.292 3149.06 472.297 3152.3 471.552C3156.78 470.552 3158.65 471.672 3158.65 471.672C3157.78 473.792 3154.04 476.781 3149.8 476.531C3145.82 476.406 3144.2 473.292 3144.2 473.292ZM3159.02 476.781C3164.63 475.662 3168.86 478.276 3168.86 478.276C3168.86 478.276 3166.13 482.391 3160.15 483.76C3153.29 485.38 3149.43 482.885 3149.43 482.885C3149.43 482.885 3151.67 478.276 3159.02 476.781ZM3155.29 491.609C3154.04 492.104 3153.54 492.854 3153.54 492.854C3153.54 492.854 3153.54 489.865 3156.28 487.995C3159.15 486 3163.26 486.625 3164.88 487.87C3164.88 487.87 3163.88 489.49 3160.27 490.734C3157.53 491.609 3156.53 491.109 3155.29 491.609ZM3157.03 494.099C3157.03 494.099 3158.28 494.599 3160.27 493.974C3162.26 493.354 3163.01 491.979 3166.99 490.484C3172.35 488.495 3174.97 489.615 3174.97 489.615C3174.22 492.354 3169.98 496.839 3164.63 497.214C3159.9 497.589 3157.03 494.099 3157.03 494.099ZM3170.11 507.552C3170.11 507.552 3168.36 501.078 3173.22 495.719C3178.71 489.74 3187.8 488.865 3191.79 490.609C3191.79 490.609 3190.67 494.599 3183.44 499.208C3178.08 502.573 3175.72 502.073 3173.22 503.943C3170.73 505.813 3170.11 507.552 3170.11 507.552ZM3227.05 512.042C3220.07 514.656 3212.47 516.151 3204.62 516.151C3195.03 516.151 3186.06 514.031 3177.96 510.297C3187.05 504.068 3198.14 494.099 3198.14 482.516C3198.14 456.599 3176.59 435.047 3176.59 413.245C3176.59 377.74 3229.79 373.005 3229.79 373.005C3229.79 373.005 3190.29 384.339 3190.29 408.01C3190.29 432.182 3232.28 447.505 3232.28 478.526C3232.28 493.849 3229.79 504.813 3227.05 512.042ZM3237.39 505.438C3237.01 508.677 3234.27 510.047 3234.27 510.047C3234.27 510.047 3234.65 509.297 3234.52 507.927C3234.27 506.557 3233.4 505.938 3232.9 503.068C3232.15 499.333 3233.28 497.714 3233.28 497.714C3235.14 498.583 3237.76 501.823 3237.39 505.438ZM3239.63 500.203C3235.52 497.464 3234.27 492.104 3234.9 489.615C3234.9 489.615 3237.39 489.74 3240.75 493.599C3243.24 496.469 3243.11 497.839 3244.36 499.208C3245.61 500.578 3246.85 500.703 3246.85 500.703C3246.85 500.703 3243.36 502.448 3239.63 500.203ZM3244.98 496.594C3242.74 494.224 3242.87 492.104 3242.87 492.104C3242.87 492.104 3245.23 491.979 3247.48 494.599C3249.22 496.594 3249.22 498.958 3249.22 498.958C3249.22 498.958 3246.98 498.833 3244.98 496.594ZM3250.22 495.219C3250.22 495.219 3250.09 493.974 3248.72 492.729C3247.35 491.484 3245.98 491.609 3243.11 489.115C3239.26 485.75 3239.13 483.26 3239.13 483.26C3241.74 482.635 3247.1 484.01 3249.72 487.995C3251.96 491.609 3250.22 495.219 3250.22 495.219ZM3256.94 490.484C3256.94 490.484 3256.82 489.74 3256.07 488.99C3255.33 488.12 3254.45 488.245 3252.71 486.75C3250.47 484.755 3250.34 483.26 3250.34 483.26C3251.84 482.885 3255.08 483.635 3256.57 486.125C3257.94 488.245 3256.94 490.484 3256.94 490.484ZM3252.96 480.271C3246.73 478.276 3244.73 474.417 3244.73 474.417C3244.73 474.417 3248.85 471.797 3255.45 474.042C3260.56 475.787 3262.8 479.896 3262.8 479.896C3262.8 479.896 3258.69 481.891 3252.96 480.271ZM3258.94 470.802C3255.95 469.182 3255.57 467.938 3253.95 467.188C3252.46 466.443 3251.34 466.693 3251.34 466.693C3251.34 466.693 3253.95 464.198 3257.82 465.073C3262.18 466.068 3265.04 470.057 3265.29 472.422C3265.29 472.422 3262.93 472.922 3258.94 470.802ZM3260.93 463.578C3257.57 462.703 3256.45 460.714 3256.45 460.714C3256.45 460.714 3258.56 459.214 3262.18 460.339C3264.92 461.208 3266.17 463.328 3266.17 463.328C3266.17 463.328 3264.05 464.448 3260.93 463.578ZM3267.29 458.594C3267.29 458.594 3266.79 457.844 3265.54 457.224C3264.3 456.724 3263.3 457.099 3260.68 456.099C3257.19 454.729 3256.32 453.109 3256.32 453.109C3257.82 452.115 3261.93 451.615 3264.79 453.734C3267.41 455.604 3267.29 458.594 3267.29 458.594Z" fill="#9E1F0E"/>
<mask id="mask2_1093_388" style="mask-type:luminance" maskUnits="userSpaceOnUse" x="0" y="1" width="4701" height="897">
<path d="M0.666504 1.20834H4700.84V897.333H0.666504V1.20834Z" fill="white"/>
</mask>
<g mask="url(#mask2_1093_388)">
<mask id="mask3_1093_388" style="mask-type:luminance" maskUnits="userSpaceOnUse" x="0" y="0" width="4702" height="898">
<path d="M4701.33 0H0V897.333H4701.33V0Z" fill="white"/>
</mask>
<g mask="url(#mask3_1093_388)">
<path d="M366.361 699.657L334.278 637.532H167.028L134.944 699.657H12.0693L250.986 255.928L489.257 699.657H366.361ZM291.278 554.24L250.986 476.428L210.028 554.24H291.278Z" fill="#9E1F0E"/>
<path d="M711.058 318.72C700.584 318.72 691.709 322.365 684.433 329.657C677.151 337.397 673.516 346.49 673.516 356.949V394.511H743.828V490.074H673.516V699.657H577.933V489.386H516.495V394.511H577.933V318.72C577.933 292.334 587.266 270.032 605.933 251.824C624.584 233.173 647.11 223.845 673.516 223.845H743.828V318.72H711.058Z" fill="#9E1F0E"/>
<path d="M880.335 400.657C888.07 378.813 901.033 363.563 919.231 354.907C936.981 346.272 963.606 341.949 999.106 341.949V439.553C964.523 439.553 935.627 451.386 912.419 475.053C891.028 496.001 880.335 518.985 880.335 544.011V699.657H784.752V348.074H880.335V400.657Z" fill="#9E1F0E"/>
<path d="M1124.7 223.845V304.386H1029.8V223.845H1124.7ZM1125.38 348.761V699.657H1029.8V348.761H1125.38Z" fill="#9E1F0E"/>
<path d="M1447.57 657.324C1414.34 685.548 1375.66 699.657 1331.53 699.657C1282.83 699.199 1241.41 681.678 1207.28 647.095C1173.15 612.501 1156.31 571.084 1156.76 522.845C1157.21 474.152 1174.73 432.735 1209.32 398.595C1243.91 364.47 1285.33 347.631 1333.57 348.074C1377.26 348.532 1415.49 363.105 1448.26 391.782L1384.78 454.574C1369.3 443.199 1352.01 437.511 1332.88 437.511C1309.21 437.511 1288.73 445.709 1271.44 462.095C1254.61 478.928 1246.19 499.407 1246.19 523.532C1245.28 547.199 1253.47 567.678 1270.78 584.97C1287.15 601.36 1307.63 610.006 1332.21 610.907C1351.32 610.907 1368.61 605.22 1384.09 593.845L1447.57 657.324Z" fill="#9E1F0E"/>
<path d="M1731.53 346.72H1827.11V699.657H1731.53V660.053C1711.95 685.543 1682.37 698.282 1642.78 698.282C1594.54 698.74 1553.13 681.907 1518.55 647.782C1483.95 613.647 1466.42 572.23 1465.96 523.532C1465.52 475.282 1482.36 433.865 1516.48 399.282C1550.62 364.699 1592.04 347.178 1640.73 346.72C1680.79 346.72 1711.05 359.694 1731.53 385.636V346.72ZM1702.86 583.595C1719.69 566.761 1728.11 546.282 1728.11 522.157C1728.11 497.589 1719.46 477.11 1702.17 460.72C1684.88 443.428 1664.63 435.24 1641.42 436.157C1617.3 436.157 1596.82 444.574 1579.98 461.407C1563.14 478.24 1554.71 498.72 1554.71 522.845C1554.71 546.511 1563.36 566.99 1580.65 584.282C1597.49 601.131 1617.98 609.553 1642.11 609.553C1666.68 608.636 1686.93 599.985 1702.86 583.595Z" fill="#9E1F0E"/>
<path d="M2042.79 349.449C2092.84 345.355 2134.25 358.324 2167.02 388.365C2202.07 420.673 2219.6 465.959 2219.6 524.22V699.657H2130.85V526.261H2130.16V524.886C2130.16 500.777 2121.75 480.298 2104.91 463.449C2088.06 446.615 2067.58 438.199 2043.45 438.199C2018.88 439.105 1998.4 447.751 1982.02 464.136C1964.72 481.428 1956.54 501.907 1957.45 525.574V526.261H1956.77V699.657H1861.18V346.72H1956.77V392.449C1978.15 366.964 2006.83 352.631 2042.79 349.449Z" fill="#9E1F0E"/>
<path d="M2671.56 255.928H2778.06V699.657H2671.56V525.574H2537.77V699.657H2431.27V255.928H2537.77V430.011H2671.56V255.928Z" fill="#9E1F0E"/>
<path d="M3742 255.928C3792.51 255.928 3832.57 272.543 3862.15 305.761C3887.63 334.886 3900.38 368.793 3900.38 407.47C3900.38 445.251 3888.55 478.251 3864.88 506.47C3835.3 541.053 3793.88 558.345 3740.63 558.345H3635.5V699.657H3529V255.928H3742ZM3791.84 445.032C3796.38 439.563 3799.79 433.188 3802.07 425.907C3803.88 419.532 3804.8 413.386 3804.8 407.47C3804.8 401.553 3803.66 395.188 3801.38 388.365C3798.66 381.089 3795.01 374.714 3790.46 369.24C3780 357.407 3763.85 351.49 3742 351.49H3635.5V462.782H3740.63C3754.74 462.782 3766.57 460.735 3776.13 456.636C3782.5 452.985 3787.74 449.115 3791.84 445.032Z" fill="#9E1F0E"/>
<path d="M4279.89 539.24C4280.35 548.798 4280.35 554.485 4279.89 556.303L4023.2 555.615C4026.84 566.089 4033.44 576.105 4042.99 585.657C4060.74 602.49 4081.23 610.907 4104.45 610.907C4129.02 610.006 4149.5 601.36 4165.89 584.97L4168.62 582.24L4257.37 610.22C4237.8 640.72 4217.32 662.569 4195.93 675.761C4171.81 691.235 4141.54 699.199 4105.12 699.657C4056.88 700.115 4015.47 683.277 3980.89 649.136C3946.29 615.011 3928.77 573.595 3928.31 524.886C3927.86 476.652 3944.7 435.24 3978.83 400.657C4012.96 366.063 4054.38 348.532 4103.08 348.074C4151.31 347.631 4192.73 364.47 4227.33 398.595C4261.91 432.735 4279.43 474.152 4279.89 522.845V539.24ZM4103.77 437.511C4079.64 437.511 4059.16 445.938 4042.33 462.782C4033.67 472.339 4027.53 481.897 4023.89 491.449H4184.31C4180.67 481.897 4174.3 472.11 4165.2 462.095C4147.91 445.709 4127.43 437.511 4103.77 437.511Z" fill="#9E1F0E"/>
<path d="M4678.52 407.47C4678.52 436.152 4671.24 462.777 4656.67 487.345C4638.93 516.47 4613.9 536.73 4581.59 548.115L4677.17 699.657H4557.69L4464.86 558.345H4414.34V699.657H4307.84V255.928H4520.15C4570.66 255.928 4610.71 272.543 4640.29 305.761C4665.78 334.886 4678.52 368.793 4678.52 407.47ZM4414.34 351.49V462.782H4519.46C4534.03 462.782 4545.63 460.735 4554.27 456.636C4561.57 452.543 4566.8 448.673 4569.98 445.032C4574.53 439.563 4577.95 433.188 4580.21 425.907C4582.04 419.532 4582.96 413.386 4582.96 407.47C4582.96 401.11 4582.04 394.74 4580.21 388.365C4577.49 381.089 4573.62 374.714 4568.61 369.24C4558.61 357.407 4542.45 351.49 4520.15 351.49H4414.34Z" fill="#9E1F0E"/>
</g>
</g>
<mask id="mask4_1093_388" style="mask-type:luminance" maskUnits="userSpaceOnUse" x="65" y="837" width="4398" height="226">
<path d="M65.333 837.333H4462.67V1062.54H65.333V837.333Z" fill="white"/>
</mask>
<g mask="url(#mask4_1093_388)">
<mask id="mask5_1093_388" style="mask-type:luminance" maskUnits="userSpaceOnUse" x="65" y="837" width="4398" height="226">
<path d="M4462.67 837.333H65.333V1062.67H4462.67V837.333Z" fill="white"/>
</mask>
<g mask="url(#mask5_1093_388)">
<path d="M76.4541 1008.56L124.558 891.621H152.621L200.058 1008.56H173.829L161.975 977.829H113.704L101.683 1008.56H76.4541ZM121.225 958.454H154.621L138.1 915.35L121.225 958.454Z" fill="#58595B"/>
<path d="M189.343 921.538H208.718V913.184C208.718 903.491 211.556 896.027 217.239 890.788C222.916 885.553 231.103 882.934 241.801 882.934C244.134 882.934 246.52 883.079 248.968 883.371C251.426 883.652 253.541 884.012 255.322 884.454V903.663C253.207 903.22 251.348 902.887 249.739 902.663C248.124 902.444 246.426 902.329 244.634 902.329C240.301 902.329 237.041 903.277 234.864 905.163C232.697 907.053 231.614 909.892 231.614 913.684V921.538H255.322V940.746H231.614V1008.56H208.718V940.746H189.343V921.538Z" fill="#58595B"/>
<path d="M267.345 1008.56V921.538H290.22V931.059C293.011 927.267 296.376 924.402 300.324 922.454C304.282 920.496 308.657 919.517 313.449 919.517C315.668 919.631 317.532 919.829 319.032 920.121C320.543 920.402 321.855 920.871 322.97 921.538V941.579C321.303 940.803 319.459 940.22 317.449 939.829C315.449 939.444 313.392 939.246 311.282 939.246C306.824 939.246 302.725 940.361 298.991 942.579C295.267 944.803 292.345 948.033 290.22 952.267V1008.56H267.345Z" fill="#58595B"/>
<path d="M346.672 911.184C343.114 911.184 340.052 909.908 337.484 907.35C334.927 904.783 333.651 901.715 333.651 898.142C333.651 894.59 334.927 891.533 337.484 888.975C340.052 886.408 343.114 885.121 346.672 885.121C350.239 885.121 353.302 886.408 355.859 888.975C358.427 891.533 359.713 894.59 359.713 898.142C359.713 901.715 358.427 904.783 355.859 907.35C353.302 909.908 350.239 911.184 346.672 911.184ZM358.193 921.538V1008.56H335.318V921.538H358.193Z" fill="#58595B"/>
<path d="M418.673 990.184C422.558 990.184 426.199 989.408 429.589 987.85C432.99 986.298 436.256 983.845 439.381 980.496L453.068 994.704C448.62 999.595 443.282 1003.41 437.048 1006.14C430.808 1008.86 424.344 1010.23 417.652 1010.23C411.303 1010.23 405.318 1009.06 399.693 1006.73C394.079 1004.38 389.24 1001.2 385.173 997.204C381.1 993.194 377.902 988.428 375.568 982.913C373.235 977.402 372.068 971.47 372.068 965.121C372.068 958.777 373.235 952.85 375.568 947.35C377.902 941.84 381.1 937.048 385.173 932.975C389.24 928.908 394.079 925.704 399.693 923.371C405.318 921.027 411.303 919.85 417.652 919.85C424.568 919.85 431.199 921.22 437.548 923.954C443.891 926.678 449.287 930.491 453.735 935.392L439.714 950.267C436.589 946.809 433.24 944.194 429.673 942.413C426.115 940.637 422.282 939.746 418.173 939.746C411.589 939.746 406.037 942.199 401.527 947.1C397.027 951.991 394.777 957.996 394.777 965.121C394.777 972.246 397.079 978.204 401.693 982.996C406.318 987.788 411.975 990.184 418.673 990.184Z" fill="#58595B"/>
<path d="M492.48 1010.06C483.115 1010.06 475.485 1007.59 469.584 1002.64C463.693 997.684 460.75 991.246 460.75 983.329C460.75 975.095 463.922 968.637 470.271 963.954C476.615 959.277 485.355 956.934 496.48 956.934C500.047 956.934 503.61 957.22 507.167 957.788C510.735 958.345 514.25 959.178 517.709 960.288V954.1C517.709 949.09 516.146 945.303 513.021 942.746C509.907 940.178 505.344 938.892 499.334 938.892C495.652 938.892 491.667 939.486 487.375 940.663C483.094 941.829 478.23 943.637 472.771 946.079L464.417 929.204C471.209 926.095 477.803 923.762 484.209 922.204C490.61 920.637 496.928 919.85 503.167 919.85C514.86 919.85 523.964 922.663 530.48 928.288C536.99 933.913 540.25 941.85 540.25 952.1V1008.56H517.709V1002.54C514.027 1005.11 510.152 1007.01 506.084 1008.23C502.027 1009.44 497.49 1010.06 492.48 1010.06ZM482.625 982.829C482.625 986.178 484.068 988.824 486.959 990.767C489.86 992.715 493.709 993.684 498.5 993.684C502.277 993.684 505.75 993.215 508.917 992.267C512.094 991.324 515.027 989.965 517.709 988.184V975.142C514.917 974.033 511.985 973.225 508.917 972.725C505.86 972.225 502.667 971.975 499.334 971.975C494.094 971.975 490 972.954 487.042 974.913C484.094 976.861 482.625 979.496 482.625 982.829Z" fill="#58595B"/>
<path d="M557.607 1008.56V921.538H580.482V928.371C583.826 925.595 587.529 923.486 591.587 922.038C595.654 920.579 600.087 919.85 604.878 919.85C614.904 919.85 623.149 923.09 629.607 929.559C636.066 936.017 639.295 944.309 639.295 954.434V1008.56H616.399V957.788C616.399 952.329 614.753 947.934 611.462 944.6C608.18 941.257 603.816 939.579 598.357 939.579C594.576 939.579 591.154 940.329 588.087 941.829C585.029 943.329 582.493 945.475 580.482 948.267V1008.56H557.607Z" fill="#58595B"/>
<path d="M694.136 1008.56V891.621H718.365V938.559H772.157V891.621H796.365V1008.56H772.157V960.788H718.365V1008.56H694.136Z" fill="#58595B"/>
<path d="M844.041 1010.06C834.916 1010.06 827.484 1007.73 821.749 1003.06C816.01 998.381 813.145 992.303 813.145 984.829C813.145 977.038 816.15 970.84 822.166 966.225C828.176 961.6 836.301 959.288 846.541 959.288C850.999 959.288 855.312 959.788 859.478 960.788C863.655 961.788 867.53 963.178 871.103 964.954V953.934C871.103 947.256 869.208 942.22 865.416 938.829C861.635 935.428 856.129 933.725 848.895 933.725C844.77 933.725 840.614 934.309 836.437 935.475C832.254 936.642 827.666 938.512 822.666 941.079L817.978 931.559C823.989 928.658 829.562 926.538 834.687 925.204C839.812 923.871 844.937 923.204 850.062 923.204C860.629 923.204 868.78 925.715 874.52 930.725C880.254 935.725 883.124 942.908 883.124 952.267V1008.56H871.103V1000.37C867.312 1003.61 863.155 1006.03 858.645 1007.64C854.145 1009.25 849.275 1010.06 844.041 1010.06ZM824.999 984.496C824.999 989.178 826.968 992.996 830.916 995.954C834.874 998.902 839.968 1000.37 846.208 1000.37C851.218 1000.37 855.78 999.595 859.895 998.038C864.02 996.486 867.754 994.033 871.103 990.684V974.975C867.645 972.642 863.937 970.949 859.978 969.892C856.03 968.84 851.666 968.309 846.874 968.309C840.192 968.309 834.874 969.788 830.916 972.746C826.968 975.694 824.999 979.611 824.999 984.496Z" fill="#58595B"/>
<path d="M974.322 999.704C969.64 1003.16 964.765 1005.76 959.697 1007.48C954.624 1009.19 949.083 1010.06 943.072 1010.06C937.056 1010.06 931.405 1008.94 926.114 1006.73C920.833 1004.49 916.27 1001.43 912.426 997.538C908.577 993.637 905.541 989.038 903.322 983.746C901.098 978.454 899.989 972.746 899.989 966.621C899.989 960.621 901.072 955.007 903.239 949.767C905.405 944.533 908.327 939.97 912.01 936.079C915.687 932.178 920.056 929.116 925.114 926.892C930.181 924.658 935.556 923.538 941.239 923.538C946.806 923.538 952.015 924.658 956.864 926.892C961.708 929.116 965.885 932.178 969.385 936.079C972.895 939.97 975.681 944.533 977.739 949.767C979.791 955.007 980.822 960.621 980.822 966.621V970.475H912.176C913.062 978.715 916.458 985.559 922.364 991.017C928.265 996.475 935.333 999.204 943.572 999.204C947.916 999.204 952.145 998.538 956.26 997.204C960.385 995.871 963.843 993.975 966.635 991.517L974.322 999.704ZM940.905 934.392C933.666 934.392 927.405 936.845 922.114 941.746C916.822 946.652 913.619 952.944 912.51 960.621H968.468C967.353 953.277 964.208 947.069 959.03 941.996C953.848 936.928 947.806 934.392 940.905 934.392Z" fill="#58595B"/>
<path d="M998.016 1008.56V924.871H1010.37V934.059C1013.49 930.491 1017.11 927.788 1021.22 925.954C1025.35 924.121 1029.92 923.204 1034.93 923.204C1040.72 923.204 1045.93 924.574 1050.56 927.309C1055.18 930.033 1058.77 933.725 1061.33 938.392C1064.79 933.283 1068.93 929.475 1073.77 926.975C1078.61 924.465 1084.04 923.204 1090.06 923.204C1099.08 923.204 1106.46 926.215 1112.18 932.225C1117.92 938.241 1120.79 946.033 1120.79 955.6V1008.56H1108.6V958.121C1108.6 950.762 1106.65 944.913 1102.74 940.579C1098.85 936.236 1093.57 934.059 1086.89 934.059C1082.32 934.059 1078.14 935.236 1074.35 937.579C1070.57 939.913 1067.34 943.303 1064.66 947.746C1064.88 948.986 1065.08 950.241 1065.24 951.517C1065.41 952.798 1065.49 954.158 1065.49 955.6V1008.56H1053.31V958.121C1053.31 950.762 1051.35 944.913 1047.45 940.579C1043.56 936.236 1038.33 934.059 1031.77 934.059C1027.31 934.059 1023.27 935.095 1019.64 937.163C1016.03 939.22 1012.94 942.246 1010.37 946.246V1008.56H998.016Z" fill="#58595B"/>
<path d="M1167.87 1010.06C1158.75 1010.06 1151.32 1007.73 1145.58 1003.06C1139.84 998.381 1136.98 992.303 1136.98 984.829C1136.98 977.038 1139.98 970.84 1146 966.225C1152.01 961.6 1160.13 959.288 1170.37 959.288C1174.83 959.288 1179.14 959.788 1183.31 960.788C1187.49 961.788 1191.36 963.178 1194.94 964.954V953.934C1194.94 947.256 1193.04 942.22 1189.25 938.829C1185.47 935.428 1179.96 933.725 1172.73 933.725C1168.6 933.725 1164.45 934.309 1160.27 935.475C1156.09 936.642 1151.5 938.512 1146.5 941.079L1141.81 931.559C1147.82 928.658 1153.39 926.538 1158.52 925.204C1163.64 923.871 1168.77 923.204 1173.89 923.204C1184.46 923.204 1192.61 925.715 1198.35 930.725C1204.09 935.725 1206.96 942.908 1206.96 952.267V1008.56H1194.94V1000.37C1191.14 1003.61 1186.99 1006.03 1182.48 1007.64C1177.98 1009.25 1173.11 1010.06 1167.87 1010.06ZM1148.83 984.496C1148.83 989.178 1150.8 992.996 1154.75 995.954C1158.71 998.902 1163.8 1000.37 1170.04 1000.37C1175.05 1000.37 1179.61 999.595 1183.73 998.038C1187.85 996.486 1191.59 994.033 1194.94 990.684V974.975C1191.48 972.642 1187.77 970.949 1183.81 969.892C1179.86 968.84 1175.5 968.309 1170.71 968.309C1164.02 968.309 1158.71 969.788 1154.75 972.746C1150.8 975.694 1148.83 979.611 1148.83 984.496Z" fill="#58595B"/>
<path d="M1234.67 989.85V935.392H1216.63V924.871H1234.67V903.663L1246.88 900.475V924.871H1272.08V935.392H1246.88V986.684C1246.88 991.132 1247.88 994.329 1249.88 996.288C1251.88 998.236 1255.16 999.204 1259.73 999.204C1262.06 999.204 1264.15 999.038 1265.98 998.704C1267.82 998.371 1269.8 997.819 1271.92 997.038V1007.89C1269.8 1008.67 1267.44 1009.23 1264.81 1009.56C1262.2 1009.89 1259.67 1010.06 1257.23 1010.06C1249.99 1010.06 1244.42 1008.34 1240.52 1004.89C1236.62 1001.43 1234.67 996.423 1234.67 989.85Z" fill="#58595B"/>
<path d="M1278.77 966.621C1278.77 960.621 1279.88 954.949 1282.1 949.6C1284.32 944.256 1287.35 939.637 1291.2 935.746C1295.05 931.845 1299.58 928.783 1304.81 926.559C1310.04 924.324 1315.61 923.204 1321.52 923.204C1327.42 923.204 1332.96 924.324 1338.14 926.559C1343.32 928.783 1347.83 931.845 1351.66 935.746C1355.51 939.637 1358.54 944.256 1360.77 949.6C1363 954.949 1364.12 960.621 1364.12 966.621C1364.12 972.746 1363 978.486 1360.77 983.829C1358.54 989.178 1355.51 993.803 1351.66 997.704C1347.83 1001.6 1343.32 1004.66 1338.14 1006.89C1332.96 1009.11 1327.42 1010.23 1321.52 1010.23C1315.61 1010.23 1310.04 1009.11 1304.81 1006.89C1299.58 1004.66 1295.05 1001.6 1291.2 997.704C1287.35 993.803 1284.32 989.178 1282.1 983.829C1279.88 978.486 1278.77 972.746 1278.77 966.621ZM1321.52 999.204C1325.75 999.204 1329.73 998.371 1333.45 996.704C1337.19 995.027 1340.42 992.715 1343.14 989.767C1345.88 986.809 1348.02 983.361 1349.58 979.413C1351.15 975.454 1351.93 971.194 1351.93 966.621C1351.93 962.069 1351.15 957.809 1349.58 953.85C1348.02 949.892 1345.88 946.47 1343.14 943.579C1340.42 940.694 1337.19 938.413 1333.45 936.746C1329.73 935.069 1325.75 934.225 1321.52 934.225C1317.29 934.225 1313.31 935.069 1309.58 936.746C1305.84 938.413 1302.61 940.694 1299.89 943.579C1297.17 946.47 1295 949.892 1293.37 953.85C1291.76 957.809 1290.95 962.069 1290.95 966.621C1290.95 971.194 1291.73 975.454 1293.29 979.413C1294.85 983.361 1297 986.809 1299.72 989.767C1302.44 992.715 1305.7 995.027 1309.5 996.704C1313.29 998.371 1317.29 999.204 1321.52 999.204Z" fill="#58595B"/>
<path d="M1393.66 888.788V1008.56H1381.3V891.621L1393.66 888.788Z" fill="#58595B"/>
<path d="M1410.87 966.621C1410.87 960.621 1411.98 954.949 1414.2 949.6C1416.42 944.256 1419.46 939.637 1423.31 935.746C1427.15 931.845 1431.69 928.783 1436.91 926.559C1442.15 924.324 1447.71 923.204 1453.62 923.204C1459.52 923.204 1465.06 924.324 1470.25 926.559C1475.42 928.783 1479.93 931.845 1483.77 935.746C1487.61 939.637 1490.65 944.256 1492.87 949.6C1495.11 954.949 1496.23 960.621 1496.23 966.621C1496.23 972.746 1495.11 978.486 1492.87 983.829C1490.65 989.178 1487.61 993.803 1483.77 997.704C1479.93 1001.6 1475.42 1004.66 1470.25 1006.89C1465.06 1009.11 1459.52 1010.23 1453.62 1010.23C1447.71 1010.23 1442.15 1009.11 1436.91 1006.89C1431.69 1004.66 1427.15 1001.6 1423.31 997.704C1419.46 993.803 1416.42 989.178 1414.2 983.829C1411.98 978.486 1410.87 972.746 1410.87 966.621ZM1453.62 999.204C1457.86 999.204 1461.83 998.371 1465.56 996.704C1469.29 995.027 1472.52 992.715 1475.25 989.767C1477.98 986.809 1480.13 983.361 1481.68 979.413C1483.25 975.454 1484.04 971.194 1484.04 966.621C1484.04 962.069 1483.25 957.809 1481.68 953.85C1480.13 949.892 1477.98 946.47 1475.25 943.579C1472.52 940.694 1469.29 938.413 1465.56 936.746C1461.83 935.069 1457.86 934.225 1453.62 934.225C1449.4 934.225 1445.42 935.069 1441.68 936.746C1437.94 938.413 1434.71 940.694 1432 943.579C1429.27 946.47 1427.1 949.892 1425.48 953.85C1423.86 957.809 1423.06 962.069 1423.06 966.621C1423.06 971.194 1423.83 975.454 1425.39 979.413C1426.96 983.361 1429.11 986.809 1431.83 989.767C1434.55 992.715 1437.81 995.027 1441.6 996.704C1445.39 998.371 1449.4 999.204 1453.62 999.204Z" fill="#58595B"/>
<path d="M1551.49 1009.23C1545.7 1009.23 1540.27 1008.12 1535.2 1005.89C1530.14 1003.66 1525.72 1000.62 1521.93 996.788C1518.14 992.944 1515.16 988.402 1512.99 983.163C1510.82 977.928 1509.74 972.303 1509.74 966.288C1509.74 960.277 1510.82 954.658 1512.99 949.434C1515.16 944.199 1518.14 939.663 1521.93 935.829C1525.72 931.986 1530.17 928.949 1535.28 926.725C1540.41 924.491 1545.92 923.371 1551.82 923.371C1556.62 923.371 1561.26 924.236 1565.76 925.954C1570.27 927.678 1574.43 930.1 1578.22 933.225V924.871H1590.41V1010.56C1590.41 1021.25 1587.29 1029.46 1581.05 1035.2C1574.81 1040.94 1565.91 1043.81 1554.34 1043.81C1548.55 1043.81 1542.81 1043.05 1537.14 1041.54C1531.45 1040.04 1526.27 1037.9 1521.59 1035.12L1526.95 1025.43C1531.95 1028.1 1536.59 1030.04 1540.89 1031.27C1545.18 1032.5 1549.49 1033.12 1553.82 1033.12C1561.74 1033.12 1567.75 1031.23 1571.87 1027.43C1575.99 1023.64 1578.05 1018.07 1578.05 1010.73V999.538C1574.26 1002.66 1570.11 1005.06 1565.59 1006.73C1561.09 1008.39 1556.39 1009.23 1551.49 1009.23ZM1521.93 966.288C1521.93 970.746 1522.7 974.954 1524.26 978.913C1525.83 982.861 1527.98 986.257 1530.7 989.1C1533.42 991.934 1536.68 994.194 1540.47 995.871C1544.26 997.538 1548.27 998.371 1552.49 998.371C1557.83 998.371 1562.74 997.371 1567.2 995.371C1571.66 993.361 1575.27 990.517 1578.05 986.85V945.746C1575.27 942.194 1571.63 939.413 1567.12 937.413C1562.6 935.402 1557.73 934.392 1552.49 934.392C1548.16 934.392 1544.12 935.204 1540.39 936.829C1536.65 938.444 1533.42 940.694 1530.7 943.579C1527.98 946.47 1525.83 949.866 1524.26 953.767C1522.7 957.673 1521.93 961.845 1521.93 966.288Z" fill="#58595B"/>
<path d="M1630.98 1019.41L1635.84 1008.39L1601.75 924.871H1615.46L1642.5 993.517L1671.75 924.871H1685.11L1643.53 1021.08C1639.95 1029.11 1635.99 1034.9 1631.65 1038.45C1627.32 1042.02 1621.81 1043.81 1615.13 1043.81C1613.56 1043.81 1612.08 1043.73 1610.69 1043.56C1609.3 1043.39 1608.16 1043.19 1607.28 1042.98V1031.79C1608.38 1032.01 1609.47 1032.17 1610.53 1032.29C1611.58 1032.4 1612.83 1032.45 1614.28 1032.45C1618.07 1032.45 1621.3 1031.39 1623.96 1029.27C1626.64 1027.15 1628.98 1023.87 1630.98 1019.41Z" fill="#58595B"/>
<path d="M1851.83 950.1C1851.83 958.449 1850.21 966.324 1846.98 973.725C1843.75 981.132 1839.38 987.533 1833.87 992.934C1828.36 998.34 1821.82 1002.6 1814.25 1005.73C1806.68 1008.83 1798.55 1010.39 1789.85 1010.39C1781.28 1010.39 1773.21 1008.83 1765.62 1005.73C1758.05 1002.6 1751.51 998.34 1746 992.934C1740.5 987.533 1736.13 981.132 1732.9 973.725C1729.67 966.324 1728.06 958.449 1728.06 950.1C1728.06 941.741 1729.67 933.861 1732.9 926.454C1736.13 919.053 1740.5 912.652 1746 907.246C1751.51 901.845 1758.05 897.59 1765.62 894.475C1773.21 891.35 1781.28 889.788 1789.85 889.788C1798.55 889.788 1806.68 891.35 1814.25 894.475C1821.82 897.59 1828.36 901.845 1833.87 907.246C1839.38 912.652 1843.75 919.053 1846.98 926.454C1850.21 933.861 1851.83 941.741 1851.83 950.1ZM1826.94 950.1C1826.94 944.642 1825.99 939.6 1824.1 934.975C1822.21 930.35 1819.62 926.345 1816.33 922.954C1813.05 919.553 1809.13 916.882 1804.56 914.934C1799.99 912.991 1795.09 912.017 1789.85 912.017C1784.61 912.017 1779.74 912.991 1775.23 914.934C1770.73 916.882 1766.83 919.553 1763.54 922.954C1760.26 926.345 1757.67 930.35 1755.77 934.975C1753.88 939.6 1752.94 944.642 1752.94 950.1C1752.94 955.449 1753.88 960.465 1755.77 965.142C1757.67 969.809 1760.26 973.845 1763.54 977.246C1766.83 980.637 1770.73 983.309 1775.23 985.267C1779.74 987.215 1784.61 988.184 1789.85 988.184C1795.09 988.184 1799.99 987.215 1804.56 985.267C1809.13 983.309 1813.05 980.637 1816.33 977.246C1819.62 973.845 1822.21 969.809 1824.1 965.142C1825.99 960.465 1826.94 955.449 1826.94 950.1Z" fill="#58595B"/>
<path d="M1868.38 1008.56V924.871H1880.73V934.725C1883.97 930.934 1887.81 928.069 1892.25 926.121C1896.71 924.178 1901.67 923.204 1907.13 923.204C1916.6 923.204 1924.34 926.215 1930.36 932.225C1936.37 938.241 1939.38 946.033 1939.38 955.6V1008.56H1927.17V958.121C1927.17 950.762 1925.05 944.913 1920.82 940.579C1916.59 936.236 1910.92 934.059 1903.8 934.059C1898.78 934.059 1894.3 935.178 1890.34 937.413C1886.39 939.637 1883.19 942.803 1880.73 946.913V1008.56H1868.38Z" fill="#58595B"/>
<path d="M1999.15 998.871C2003.61 998.871 2007.89 997.986 2012.01 996.204C2016.13 994.413 2019.97 991.798 2023.55 988.35L2031.23 996.704C2026.78 1000.93 2021.76 1004.21 2016.19 1006.56C2010.62 1008.89 2004.83 1010.06 1998.82 1010.06C1992.91 1010.06 1987.34 1008.94 1982.11 1006.73C1976.89 1004.49 1972.38 1001.43 1968.59 997.538C1964.8 993.637 1961.79 989.012 1959.57 983.663C1957.34 978.319 1956.23 972.637 1956.23 966.621C1956.23 960.621 1957.34 954.975 1959.57 949.684C1961.79 944.392 1964.8 939.803 1968.59 935.913C1972.38 932.012 1976.89 928.923 1982.11 926.642C1987.34 924.35 1992.91 923.204 1998.82 923.204C2004.83 923.204 2010.7 924.381 2016.44 926.725C2022.18 929.059 2027.22 932.283 2031.57 936.392L2023.71 945.413C2020.36 941.97 2016.52 939.303 2012.17 937.413C2007.84 935.512 2003.44 934.559 1998.98 934.559C1994.76 934.559 1990.76 935.402 1986.96 937.079C1983.17 938.746 1979.91 941.033 1977.19 943.934C1974.47 946.824 1972.32 950.22 1970.76 954.121C1969.2 958.012 1968.42 962.178 1968.42 966.621C1968.42 971.194 1969.22 975.454 1970.84 979.413C1972.46 983.361 1974.64 986.756 1977.36 989.6C1980.08 992.434 1983.34 994.694 1987.13 996.371C1990.92 998.038 1994.93 998.871 1999.15 998.871Z" fill="#58595B"/>
<path d="M2038.57 966.621C2038.57 960.621 2039.68 954.949 2041.9 949.6C2044.12 944.256 2047.16 939.637 2051.01 935.746C2054.85 931.845 2059.39 928.783 2064.61 926.559C2069.85 924.324 2075.41 923.204 2081.32 923.204C2087.22 923.204 2092.76 924.324 2097.95 926.559C2103.12 928.783 2107.63 931.845 2111.47 935.746C2115.31 939.637 2118.35 944.256 2120.57 949.6C2122.8 954.949 2123.92 960.621 2123.92 966.621C2123.92 972.746 2122.8 978.486 2120.57 983.829C2118.35 989.178 2115.31 993.803 2111.47 997.704C2107.63 1001.6 2103.12 1004.66 2097.95 1006.89C2092.76 1009.11 2087.22 1010.23 2081.32 1010.23C2075.41 1010.23 2069.85 1009.11 2064.61 1006.89C2059.39 1004.66 2054.85 1001.6 2051.01 997.704C2047.16 993.803 2044.12 989.178 2041.9 983.829C2039.68 978.486 2038.57 972.746 2038.57 966.621ZM2081.32 999.204C2085.55 999.204 2089.53 998.371 2093.26 996.704C2096.99 995.027 2100.22 992.715 2102.95 989.767C2105.68 986.809 2107.83 983.361 2109.38 979.413C2110.95 975.454 2111.74 971.194 2111.74 966.621C2111.74 962.069 2110.95 957.809 2109.38 953.85C2107.83 949.892 2105.68 946.47 2102.95 943.579C2100.22 940.694 2096.99 938.413 2093.26 936.746C2089.53 935.069 2085.55 934.225 2081.32 934.225C2077.1 934.225 2073.12 935.069 2069.38 936.746C2065.64 938.413 2062.41 940.694 2059.7 943.579C2056.97 946.47 2054.8 949.892 2053.17 953.85C2051.56 957.809 2050.76 962.069 2050.76 966.621C2050.76 971.194 2051.53 975.454 2053.09 979.413C2054.66 983.361 2056.8 986.809 2059.53 989.767C2062.25 992.715 2065.51 995.027 2069.3 996.704C2073.09 998.371 2077.1 999.204 2081.32 999.204Z" fill="#58595B"/>
<path d="M2153.46 888.788V1008.56H2141.11V891.621L2153.46 888.788Z" fill="#58595B"/>
<path d="M2170.67 966.621C2170.67 960.621 2171.78 954.949 2174.01 949.6C2176.23 944.256 2179.26 939.637 2183.11 935.746C2186.96 931.845 2191.49 928.783 2196.72 926.559C2201.95 924.324 2207.52 923.204 2213.42 923.204C2219.33 923.204 2224.87 924.324 2230.05 926.559C2235.23 928.783 2239.74 931.845 2243.57 935.746C2247.41 939.637 2250.45 944.256 2252.67 949.6C2254.91 954.949 2256.03 960.621 2256.03 966.621C2256.03 972.746 2254.91 978.486 2252.67 983.829C2250.45 989.178 2247.41 993.803 2243.57 997.704C2239.74 1001.6 2235.23 1004.66 2230.05 1006.89C2224.87 1009.11 2219.33 1010.23 2213.42 1010.23C2207.52 1010.23 2201.95 1009.11 2196.72 1006.89C2191.49 1004.66 2186.96 1001.6 2183.11 997.704C2179.26 993.803 2176.23 989.178 2174.01 983.829C2171.78 978.486 2170.67 972.746 2170.67 966.621ZM2213.42 999.204C2217.66 999.204 2221.64 998.371 2225.36 996.704C2229.1 995.027 2232.33 992.715 2235.05 989.767C2237.78 986.809 2239.93 983.361 2241.49 979.413C2243.06 975.454 2243.84 971.194 2243.84 966.621C2243.84 962.069 2243.06 957.809 2241.49 953.85C2239.93 949.892 2237.78 946.47 2235.05 943.579C2232.33 940.694 2229.1 938.413 2225.36 936.746C2221.64 935.069 2217.66 934.225 2213.42 934.225C2209.2 934.225 2205.22 935.069 2201.49 936.746C2197.75 938.413 2194.52 940.694 2191.8 943.579C2189.08 946.47 2186.9 949.892 2185.28 953.85C2183.66 957.809 2182.86 962.069 2182.86 966.621C2182.86 971.194 2183.64 975.454 2185.2 979.413C2186.76 983.361 2188.91 986.809 2191.63 989.767C2194.35 992.715 2197.61 995.027 2201.4 996.704C2205.2 998.371 2209.2 999.204 2213.42 999.204Z" fill="#58595B"/>
<path d="M2311.29 1009.23C2305.5 1009.23 2300.07 1008.12 2295 1005.89C2289.95 1003.66 2285.52 1000.62 2281.73 996.788C2277.94 992.944 2274.96 988.402 2272.79 983.163C2270.63 977.928 2269.54 972.303 2269.54 966.288C2269.54 960.277 2270.63 954.658 2272.79 949.434C2274.96 944.199 2277.94 939.663 2281.73 935.829C2285.52 931.986 2289.97 928.949 2295.09 926.725C2300.21 924.491 2305.72 923.371 2311.63 923.371C2316.42 923.371 2321.07 924.236 2325.57 925.954C2330.08 927.678 2334.23 930.1 2338.02 933.225V924.871H2350.21V1010.56C2350.21 1021.25 2347.09 1029.46 2340.86 1035.2C2334.62 1040.94 2325.72 1043.81 2314.15 1043.81C2308.36 1043.81 2302.62 1043.05 2296.94 1041.54C2291.26 1040.04 2286.08 1037.9 2281.4 1035.12L2286.75 1025.43C2291.75 1028.1 2296.4 1030.04 2300.69 1031.27C2304.98 1032.5 2309.29 1033.12 2313.63 1033.12C2321.54 1033.12 2327.56 1031.23 2331.67 1027.43C2335.79 1023.64 2337.86 1018.07 2337.86 1010.73V999.538C2334.07 1002.66 2329.91 1005.06 2325.4 1006.73C2320.9 1008.39 2316.2 1009.23 2311.29 1009.23ZM2281.73 966.288C2281.73 970.746 2282.51 974.954 2284.07 978.913C2285.63 982.861 2287.78 986.257 2290.5 989.1C2293.22 991.934 2296.48 994.194 2300.27 995.871C2304.07 997.538 2308.07 998.371 2312.29 998.371C2317.64 998.371 2322.54 997.371 2327 995.371C2331.46 993.361 2335.08 990.517 2337.86 986.85V945.746C2335.08 942.194 2331.43 939.413 2326.92 937.413C2322.4 935.402 2317.53 934.392 2312.29 934.392C2307.96 934.392 2303.93 935.204 2300.19 936.829C2296.45 938.444 2293.22 940.694 2290.5 943.579C2287.78 946.47 2285.63 949.866 2284.07 953.767C2282.51 957.673 2281.73 961.845 2281.73 966.288Z" fill="#58595B"/>
<path d="M2390.79 1019.41L2395.64 1008.39L2361.56 924.871H2375.27L2402.31 993.517L2431.56 924.871H2444.91L2403.33 1021.08C2399.76 1029.11 2395.8 1034.9 2391.45 1038.45C2387.12 1042.02 2381.61 1043.81 2374.93 1043.81C2373.36 1043.81 2371.88 1043.73 2370.5 1043.56C2369.1 1043.39 2367.96 1043.19 2367.08 1042.98V1031.79C2368.19 1032.01 2369.27 1032.17 2370.33 1032.29C2371.38 1032.4 2372.63 1032.45 2374.08 1032.45C2377.87 1032.45 2381.1 1031.39 2383.77 1029.27C2386.44 1027.15 2388.79 1023.87 2390.79 1019.41Z" fill="#58595B"/>
<path d="M2492.36 1008.56V891.621H2550.98C2556.66 891.621 2561.93 892.548 2566.78 894.392C2571.62 896.225 2575.77 898.762 2579.21 901.996C2582.67 905.22 2585.37 909.09 2587.32 913.6C2589.28 918.1 2590.25 923.027 2590.25 928.371C2590.25 933.611 2589.28 938.428 2587.32 942.829C2585.37 947.236 2582.64 951.053 2579.13 954.288C2575.63 957.512 2571.48 960.012 2566.69 961.788C2561.9 963.569 2556.66 964.454 2550.98 964.454H2516.59V1008.56H2492.36ZM2548.32 912.517H2516.59V944.413H2548.32C2553.55 944.413 2557.75 942.97 2560.92 940.079C2564.1 937.178 2565.69 933.329 2565.69 928.538C2565.69 923.762 2564.1 919.902 2560.92 916.954C2557.75 913.996 2553.55 912.517 2548.32 912.517Z" fill="#58595B"/>
<path d="M2632.61 1010.06C2623.49 1010.06 2616.05 1007.73 2610.32 1003.06C2604.58 998.381 2601.72 992.303 2601.72 984.829C2601.72 977.038 2604.72 970.84 2610.74 966.225C2616.75 961.6 2624.87 959.288 2635.11 959.288C2639.57 959.288 2643.88 959.788 2648.05 960.788C2652.23 961.788 2656.1 963.178 2659.67 964.954V953.934C2659.67 947.256 2657.78 942.22 2653.99 938.829C2650.21 935.428 2644.7 933.725 2637.47 933.725C2633.34 933.725 2629.19 934.309 2625.01 935.475C2620.83 936.642 2616.24 938.512 2611.24 941.079L2606.55 931.559C2612.56 928.658 2618.13 926.538 2623.26 925.204C2628.38 923.871 2633.51 923.204 2638.63 923.204C2649.2 923.204 2657.35 925.715 2663.09 930.725C2668.83 935.725 2671.7 942.908 2671.7 952.267V1008.56H2659.67V1000.37C2655.88 1003.61 2651.73 1006.03 2647.22 1007.64C2642.72 1009.25 2637.85 1010.06 2632.61 1010.06ZM2613.57 984.496C2613.57 989.178 2615.54 992.996 2619.49 995.954C2623.45 998.902 2628.54 1000.37 2634.78 1000.37C2639.79 1000.37 2644.35 999.595 2648.47 998.038C2652.59 996.486 2656.33 994.033 2659.67 990.684V974.975C2656.22 972.642 2652.51 970.949 2648.55 969.892C2644.6 968.84 2640.24 968.309 2635.45 968.309C2628.76 968.309 2623.45 969.788 2619.49 972.746C2615.54 975.694 2613.57 979.611 2613.57 984.496Z" fill="#58595B"/>
<path d="M2699.41 989.85V935.392H2681.36V924.871H2699.41V903.663L2711.61 900.475V924.871H2736.82V935.392H2711.61V986.684C2711.61 991.132 2712.61 994.329 2714.61 996.288C2716.61 998.236 2719.9 999.204 2724.47 999.204C2726.8 999.204 2728.89 999.038 2730.72 998.704C2732.56 998.371 2734.54 997.819 2736.66 997.038V1007.89C2734.54 1008.67 2732.18 1009.23 2729.55 1009.56C2726.94 1009.89 2724.41 1010.06 2721.97 1010.06C2714.73 1010.06 2709.16 1008.34 2705.26 1004.89C2701.35 1001.43 2699.41 996.423 2699.41 989.85Z" fill="#58595B"/>
<path d="M2756.2 908.829C2753.96 908.829 2752.01 907.996 2750.34 906.329C2748.68 904.663 2747.84 902.715 2747.84 900.475C2747.84 898.142 2748.68 896.173 2750.34 894.559C2752.01 892.934 2753.96 892.121 2756.2 892.121C2758.53 892.121 2760.5 892.934 2762.12 894.559C2763.74 896.173 2764.55 898.142 2764.55 900.475C2764.55 902.715 2763.74 904.663 2762.12 906.329C2760.5 907.996 2758.53 908.829 2756.2 908.829ZM2762.37 924.871V1008.56H2750.01V924.871H2762.37Z" fill="#58595B"/>
<path d="M2853.91 999.704C2849.23 1003.16 2844.36 1005.76 2839.29 1007.48C2834.22 1009.19 2828.67 1010.06 2822.66 1010.06C2816.65 1010.06 2811 1008.94 2805.7 1006.73C2800.42 1004.49 2795.86 1001.43 2792.02 997.538C2788.17 993.637 2785.13 989.038 2782.91 983.746C2780.69 978.454 2779.58 972.746 2779.58 966.621C2779.58 960.621 2780.66 955.007 2782.83 949.767C2785 944.533 2787.92 939.97 2791.6 936.079C2795.28 932.178 2799.65 929.116 2804.7 926.892C2809.77 924.658 2815.15 923.538 2820.83 923.538C2826.4 923.538 2831.61 924.658 2836.45 926.892C2841.3 929.116 2845.48 932.178 2848.98 936.079C2852.49 939.97 2855.27 944.533 2857.33 949.767C2859.38 955.007 2860.41 960.621 2860.41 966.621V970.475H2791.77C2792.65 978.715 2796.05 985.559 2801.95 991.017C2807.86 996.475 2814.92 999.204 2823.16 999.204C2827.51 999.204 2831.74 998.538 2835.85 997.204C2839.98 995.871 2843.43 993.975 2846.23 991.517L2853.91 999.704ZM2820.5 934.392C2813.26 934.392 2807 936.845 2801.7 941.746C2796.41 946.652 2793.21 952.944 2792.1 960.621H2848.06C2846.94 953.277 2843.8 947.069 2838.62 941.996C2833.44 936.928 2827.4 934.392 2820.5 934.392Z" fill="#58595B"/>
<path d="M2877.61 1008.56V924.871H2889.96V934.725C2893.2 930.934 2897.03 928.069 2901.48 926.121C2905.94 924.178 2910.9 923.204 2916.36 923.204C2925.83 923.204 2933.57 926.215 2939.59 932.225C2945.6 938.241 2948.61 946.033 2948.61 955.6V1008.56H2936.4V958.121C2936.4 950.762 2934.28 944.913 2930.04 940.579C2925.82 936.236 2920.15 934.059 2913.02 934.059C2908.01 934.059 2903.52 935.178 2899.57 937.413C2895.62 939.637 2892.42 942.803 2889.96 946.913V1008.56H2877.61Z" fill="#58595B"/>
<path d="M2976.31 989.85V935.392H2958.27V924.871H2976.31V903.663L2988.52 900.475V924.871H3013.72V935.392H2988.52V986.684C2988.52 991.132 2989.52 994.329 2991.52 996.288C2993.52 998.236 2996.8 999.204 3001.37 999.204C3003.7 999.204 3005.79 999.038 3007.62 998.704C3009.46 998.371 3011.44 997.819 3013.56 997.038V1007.89C3011.44 1008.67 3009.08 1009.23 3006.45 1009.56C3003.84 1009.89 3001.31 1010.06 2998.87 1010.06C2991.63 1010.06 2986.06 1008.34 2982.16 1004.89C2978.26 1001.43 2976.31 996.423 2976.31 989.85Z" fill="#58595B"/>
<path d="M3062.91 1008.56V891.621H3152.78V912.684H3087.13V939.413H3130.38V959.788H3087.13V987.517H3153.45V1008.56H3062.91Z" fill="#58595B"/>
<path d="M3183.1 888.788V1008.56H3170.75V891.621L3183.1 888.788Z" fill="#58595B"/>
<path d="M3274.65 999.704C3269.97 1003.16 3265.09 1005.76 3260.03 1007.48C3254.95 1009.19 3249.41 1010.06 3243.4 1010.06C3237.38 1010.06 3231.73 1008.94 3226.44 1006.73C3221.16 1004.49 3216.6 1001.43 3212.75 997.538C3208.91 993.637 3205.87 989.038 3203.65 983.746C3201.43 978.454 3200.32 972.746 3200.32 966.621C3200.32 960.621 3201.4 955.007 3203.57 949.767C3205.73 944.533 3208.66 939.97 3212.34 936.079C3216.02 932.178 3220.38 929.116 3225.44 926.892C3230.51 924.658 3235.88 923.538 3241.57 923.538C3247.13 923.538 3252.34 924.658 3257.19 926.892C3262.04 929.116 3266.21 932.178 3269.71 936.079C3273.22 939.97 3276.01 944.533 3278.07 949.767C3280.12 955.007 3281.15 960.621 3281.15 966.621V970.475H3212.5C3213.39 978.715 3216.79 985.559 3222.69 991.017C3228.59 996.475 3235.66 999.204 3243.9 999.204C3248.24 999.204 3252.47 998.538 3256.59 997.204C3260.71 995.871 3264.17 993.975 3266.96 991.517L3274.65 999.704ZM3241.23 934.392C3233.99 934.392 3227.73 936.845 3222.44 941.746C3217.15 946.652 3213.95 952.944 3212.84 960.621H3268.8C3267.68 953.277 3264.54 947.069 3259.36 941.996C3254.18 936.928 3248.13 934.392 3241.23 934.392Z" fill="#58595B"/>
<path d="M3337.59 998.871C3342.05 998.871 3346.33 997.986 3350.45 996.204C3354.57 994.413 3358.42 991.798 3361.99 988.35L3369.68 996.704C3365.22 1000.93 3360.2 1004.21 3354.64 1006.56C3349.06 1008.89 3343.27 1010.06 3337.26 1010.06C3331.35 1010.06 3325.79 1008.94 3320.55 1006.73C3315.33 1004.49 3310.82 1001.43 3307.03 997.538C3303.24 993.637 3300.23 989.012 3298.01 983.663C3295.79 978.319 3294.68 972.637 3294.68 966.621C3294.68 960.621 3295.79 954.975 3298.01 949.684C3300.23 944.392 3303.24 939.803 3307.03 935.913C3310.82 932.012 3315.33 928.923 3320.55 926.642C3325.79 924.35 3331.35 923.204 3337.26 923.204C3343.27 923.204 3349.15 924.381 3354.89 926.725C3360.62 929.059 3365.66 932.283 3370.01 936.392L3362.16 945.413C3358.81 941.97 3354.96 939.303 3350.62 937.413C3346.28 935.512 3341.89 934.559 3337.43 934.559C3333.2 934.559 3329.2 935.402 3325.41 937.079C3321.62 938.746 3318.35 941.033 3315.64 943.934C3312.91 946.824 3310.77 950.22 3309.2 954.121C3307.64 958.012 3306.87 962.178 3306.87 966.621C3306.87 971.194 3307.67 975.454 3309.28 979.413C3310.91 983.361 3313.08 986.756 3315.8 989.6C3318.52 992.434 3321.78 994.694 3325.57 996.371C3329.37 998.038 3333.37 998.871 3337.59 998.871Z" fill="#58595B"/>
<path d="M3396.21 989.85V935.392H3378.17V924.871H3396.21V903.663L3408.42 900.475V924.871H3433.63V935.392H3408.42V986.684C3408.42 991.132 3409.42 994.329 3411.42 996.288C3413.42 998.236 3416.7 999.204 3421.27 999.204C3423.61 999.204 3425.69 999.038 3427.52 998.704C3429.37 998.371 3431.35 997.819 3433.46 997.038V1007.89C3431.35 1008.67 3428.98 1009.23 3426.36 1009.56C3423.74 1009.89 3421.22 1010.06 3418.77 1010.06C3411.53 1010.06 3405.97 1008.34 3402.07 1004.89C3398.16 1001.43 3396.21 996.423 3396.21 989.85Z" fill="#58595B"/>
<path d="M3446.82 1008.56V924.871H3459.17V936.725C3461.63 932.392 3464.86 929.033 3468.86 926.642C3472.87 924.241 3477.44 923.038 3482.57 923.038C3484.12 923.038 3485.51 923.121 3486.73 923.288C3487.97 923.454 3489.2 923.762 3490.42 924.204V935.559C3488.97 935.116 3487.52 934.757 3486.07 934.475C3484.62 934.199 3483.18 934.059 3481.73 934.059C3476.61 934.059 3472.09 935.538 3468.19 938.496C3464.3 941.444 3461.3 945.699 3459.17 951.267V1008.56H3446.82Z" fill="#58595B"/>
<path d="M3494.75 966.621C3494.75 960.621 3495.86 954.949 3498.09 949.6C3500.31 944.256 3503.34 939.637 3507.19 935.746C3511.04 931.845 3515.57 928.783 3520.8 926.559C3526.03 924.324 3531.6 923.204 3537.5 923.204C3543.41 923.204 3548.95 924.324 3554.13 926.559C3559.31 928.783 3563.82 931.845 3567.65 935.746C3571.49 939.637 3574.53 944.256 3576.75 949.6C3578.99 954.949 3580.11 960.621 3580.11 966.621C3580.11 972.746 3578.99 978.486 3576.75 983.829C3574.53 989.178 3571.49 993.803 3567.65 997.704C3563.82 1001.6 3559.31 1004.66 3554.13 1006.89C3548.95 1009.11 3543.41 1010.23 3537.5 1010.23C3531.6 1010.23 3526.03 1009.11 3520.8 1006.89C3515.57 1004.66 3511.04 1001.6 3507.19 997.704C3503.34 993.803 3500.31 989.178 3498.09 983.829C3495.86 978.486 3494.75 972.746 3494.75 966.621ZM3537.5 999.204C3541.74 999.204 3545.72 998.371 3549.44 996.704C3553.18 995.027 3556.41 992.715 3559.13 989.767C3561.86 986.809 3564.01 983.361 3565.57 979.413C3567.14 975.454 3567.92 971.194 3567.92 966.621C3567.92 962.069 3567.14 957.809 3565.57 953.85C3564.01 949.892 3561.86 946.47 3559.13 943.579C3556.41 940.694 3553.18 938.413 3549.44 936.746C3545.72 935.069 3541.74 934.225 3537.5 934.225C3533.28 934.225 3529.3 935.069 3525.57 936.746C3521.83 938.413 3518.6 940.694 3515.88 943.579C3513.16 946.47 3510.98 949.892 3509.36 953.85C3507.74 957.809 3506.94 962.069 3506.94 966.621C3506.94 971.194 3507.72 975.454 3509.28 979.413C3510.84 983.361 3512.99 986.809 3515.71 989.767C3518.43 992.715 3521.69 995.027 3525.48 996.704C3529.28 998.371 3533.28 999.204 3537.5 999.204Z" fill="#58595B"/>
<path d="M3597.29 1008.56V924.871H3609.65V934.725C3612.88 930.934 3616.72 928.069 3621.17 926.121C3625.62 924.178 3630.58 923.204 3636.04 923.204C3645.51 923.204 3653.25 926.215 3659.27 932.225C3665.28 938.241 3668.29 946.033 3668.29 955.6V1008.56H3656.08V958.121C3656.08 950.762 3653.96 944.913 3649.73 940.579C3645.5 936.236 3639.83 934.059 3632.71 934.059C3627.69 934.059 3623.21 935.178 3619.25 937.413C3615.3 939.637 3612.1 942.803 3609.65 946.913V1008.56H3597.29Z" fill="#58595B"/>
<path d="M3695.17 908.829C3692.93 908.829 3690.98 907.996 3689.31 906.329C3687.65 904.663 3686.81 902.715 3686.81 900.475C3686.81 898.142 3687.65 896.173 3689.31 894.559C3690.98 892.934 3692.93 892.121 3695.17 892.121C3697.5 892.121 3699.47 892.934 3701.08 894.559C3702.71 896.173 3703.52 898.142 3703.52 900.475C3703.52 902.715 3702.71 904.663 3701.08 906.329C3699.47 907.996 3697.5 908.829 3695.17 908.829ZM3701.33 924.871V1008.56H3688.98V924.871H3701.33Z" fill="#58595B"/>
<path d="M3761.46 998.871C3765.92 998.871 3770.2 997.986 3774.32 996.204C3778.44 994.413 3782.29 991.798 3785.86 988.35L3793.55 996.704C3789.09 1000.93 3784.07 1004.21 3778.51 1006.56C3772.93 1008.89 3767.14 1010.06 3761.13 1010.06C3755.22 1010.06 3749.66 1008.94 3744.42 1006.73C3739.2 1004.49 3734.69 1001.43 3730.9 997.538C3727.11 993.637 3724.1 989.012 3721.88 983.663C3719.66 978.319 3718.55 972.637 3718.55 966.621C3718.55 960.621 3719.66 954.975 3721.88 949.684C3724.1 944.392 3727.11 939.803 3730.9 935.913C3734.69 932.012 3739.2 928.923 3744.42 926.642C3749.66 924.35 3755.22 923.204 3761.13 923.204C3767.14 923.204 3773.02 924.381 3778.76 926.725C3784.49 929.059 3789.53 932.283 3793.88 936.392L3786.03 945.413C3782.68 941.97 3778.83 939.303 3774.49 937.413C3770.15 935.512 3765.76 934.559 3761.3 934.559C3757.07 934.559 3753.07 935.402 3749.28 937.079C3745.49 938.746 3742.22 941.033 3739.51 943.934C3736.78 946.824 3734.64 950.22 3733.07 954.121C3731.51 958.012 3730.74 962.178 3730.74 966.621C3730.74 971.194 3731.54 975.454 3733.15 979.413C3734.78 983.361 3736.95 986.756 3739.67 989.6C3742.39 992.434 3745.65 994.694 3749.44 996.371C3753.24 998.038 3757.24 998.871 3761.46 998.871Z" fill="#58595B"/>
<path d="M3844.1 1008.56V891.621H3901.23C3907.13 891.621 3912.56 892.517 3917.52 894.309C3922.48 896.09 3926.73 898.569 3930.29 901.746C3933.86 904.913 3936.64 908.725 3938.64 913.184C3940.66 917.632 3941.67 922.527 3941.67 927.871C3941.67 935.22 3939.57 941.788 3935.39 947.579C3931.21 953.371 3925.67 957.663 3918.77 960.454L3944.67 1008.56H3917.6L3894.73 963.788H3868.33V1008.56H3844.1ZM3899.06 912.517H3868.33V943.913H3899.06C3904.52 943.913 3908.88 942.47 3912.17 939.579C3915.46 936.678 3917.1 932.887 3917.1 928.204C3917.1 923.538 3915.46 919.762 3912.17 916.871C3908.88 913.97 3904.52 912.517 3899.06 912.517Z" fill="#58595B"/>
<path d="M4028.04 999.704C4023.36 1003.16 4018.48 1005.76 4013.42 1007.48C4008.34 1009.19 4002.8 1010.06 3996.79 1010.06C3990.77 1010.06 3985.12 1008.94 3979.83 1006.73C3974.55 1004.49 3969.99 1001.43 3966.14 997.538C3962.3 993.637 3959.26 989.038 3957.04 983.746C3954.82 978.454 3953.71 972.746 3953.71 966.621C3953.71 960.621 3954.79 955.007 3956.96 949.767C3959.12 944.533 3962.05 939.97 3965.73 936.079C3969.41 932.178 3973.77 929.116 3978.83 926.892C3983.9 924.658 3989.27 923.538 3994.96 923.538C4000.52 923.538 4005.73 924.658 4010.58 926.892C4015.43 929.116 4019.6 932.178 4023.1 936.079C4026.61 939.97 4029.4 944.533 4031.46 949.767C4033.51 955.007 4034.54 960.621 4034.54 966.621V970.475H3965.89C3966.78 978.715 3970.18 985.559 3976.08 991.017C3981.98 996.475 3989.05 999.204 3997.29 999.204C4001.63 999.204 4005.86 998.538 4009.98 997.204C4014.1 995.871 4017.56 993.975 4020.35 991.517L4028.04 999.704ZM3994.62 934.392C3987.38 934.392 3981.12 936.845 3975.83 941.746C3970.54 946.652 3967.34 952.944 3966.23 960.621H4022.19C4021.07 953.277 4017.93 947.069 4012.75 941.996C4007.57 936.928 4001.52 934.392 3994.62 934.392Z" fill="#58595B"/>
<path d="M4089.82 1009.23C4084.03 1009.23 4078.59 1008.12 4073.53 1005.89C4068.47 1003.66 4064.05 1000.62 4060.26 996.788C4056.46 992.944 4053.48 988.402 4051.32 983.163C4049.15 977.928 4048.07 972.303 4048.07 966.288C4048.07 960.277 4049.15 954.658 4051.32 949.434C4053.48 944.199 4056.46 939.663 4060.26 935.829C4064.05 931.986 4068.5 928.949 4073.61 926.725C4078.73 924.491 4084.25 923.371 4090.15 923.371C4094.94 923.371 4099.59 924.236 4104.09 925.954C4108.6 927.678 4112.76 930.1 4116.55 933.225V924.871H4128.73V1010.56C4128.73 1021.25 4125.62 1029.46 4119.38 1035.2C4113.14 1040.94 4104.24 1043.81 4092.67 1043.81C4086.88 1043.81 4081.14 1043.05 4075.46 1041.54C4069.78 1040.04 4064.6 1037.9 4059.92 1035.12L4065.28 1025.43C4070.28 1028.1 4074.92 1030.04 4079.21 1031.27C4083.51 1032.5 4087.82 1033.12 4092.15 1033.12C4100.07 1033.12 4106.08 1031.23 4110.19 1027.43C4114.32 1023.64 4116.38 1018.07 4116.38 1010.73V999.538C4112.59 1002.66 4108.43 1005.06 4103.92 1006.73C4099.42 1008.39 4094.72 1009.23 4089.82 1009.23ZM4060.26 966.288C4060.26 970.746 4061.03 974.954 4062.59 978.913C4064.16 982.861 4066.3 986.257 4069.03 989.1C4071.75 991.934 4075.01 994.194 4078.8 995.871C4082.59 997.538 4086.59 998.371 4090.82 998.371C4096.16 998.371 4101.07 997.371 4105.53 995.371C4109.98 993.361 4113.6 990.517 4116.38 986.85V945.746C4113.6 942.194 4109.95 939.413 4105.44 937.413C4100.93 935.402 4096.05 934.392 4090.82 934.392C4086.48 934.392 4082.45 935.204 4078.71 936.829C4074.97 938.444 4071.75 940.694 4069.03 943.579C4066.3 946.47 4064.16 949.866 4062.59 953.767C4061.03 957.673 4060.26 961.845 4060.26 966.288Z" fill="#58595B"/>
<path d="M4155.96 908.829C4153.72 908.829 4151.77 907.996 4150.1 906.329C4148.44 904.663 4147.6 902.715 4147.6 900.475C4147.6 898.142 4148.44 896.173 4150.1 894.559C4151.77 892.934 4153.72 892.121 4155.96 892.121C4158.29 892.121 4160.26 892.934 4161.87 894.559C4163.5 896.173 4164.31 898.142 4164.31 900.475C4164.31 902.715 4163.5 904.663 4161.87 906.329C4160.26 907.996 4158.29 908.829 4155.96 908.829ZM4162.12 924.871V1008.56H4149.77V924.871H4162.12Z" fill="#58595B"/>
<path d="M4174.65 997.038L4182.17 989.017C4185.96 992.574 4190.22 995.329 4194.94 997.288C4199.68 999.236 4204.49 1000.2 4209.4 1000.2C4216.08 1000.2 4221.53 998.819 4225.75 996.038C4229.99 993.246 4232.11 989.621 4232.11 985.163C4232.11 981.611 4230.86 978.803 4228.36 976.746C4225.86 974.678 4221.93 973.257 4216.59 972.475L4202.05 970.475C4193.7 969.257 4187.49 966.777 4183.42 963.038C4179.36 959.303 4177.34 954.262 4177.34 947.913C4177.34 940.902 4180.28 935.09 4186.17 930.475C4192.07 925.85 4199.59 923.538 4208.73 923.538C4214.74 923.538 4220.45 924.428 4225.86 926.204C4231.26 927.986 4236.52 930.767 4241.63 934.559L4235.13 942.913C4230.45 939.788 4225.91 937.449 4221.5 935.892C4217.11 934.34 4212.64 933.559 4208.07 933.559C4202.39 933.559 4197.73 934.845 4194.11 937.413C4190.49 939.97 4188.69 943.303 4188.69 947.413C4188.69 950.986 4189.91 953.746 4192.36 955.704C4194.82 957.652 4198.77 959.012 4204.21 959.788L4218.75 961.788C4227.1 962.902 4233.36 965.382 4237.55 969.225C4241.72 973.059 4243.82 978.152 4243.82 984.496C4243.82 988.069 4242.95 991.444 4241.21 994.621C4239.49 997.788 4237.09 1000.52 4234.03 1002.81C4230.97 1005.09 4227.38 1006.87 4223.25 1008.14C4219.14 1009.42 4214.69 1010.06 4209.9 1010.06C4202.99 1010.06 4196.51 1008.92 4190.44 1006.64C4184.37 1004.35 4179.11 1001.15 4174.65 997.038Z" fill="#58595B"/>
<path d="M4266.34 989.85V935.392H4248.3V924.871H4266.34V903.663L4278.55 900.475V924.871H4303.76V935.392H4278.55V986.684C4278.55 991.132 4279.55 994.329 4281.55 996.288C4283.55 998.236 4286.83 999.204 4291.4 999.204C4293.74 999.204 4295.82 999.038 4297.65 998.704C4299.5 998.371 4301.48 997.819 4303.59 997.038V1007.89C4301.48 1008.67 4299.11 1009.23 4296.49 1009.56C4293.87 1009.89 4291.35 1010.06 4288.9 1010.06C4281.66 1010.06 4276.1 1008.34 4272.19 1004.89C4268.29 1001.43 4266.34 996.423 4266.34 989.85Z" fill="#58595B"/>
<path d="M4316.95 1008.56V924.871H4329.3V936.725C4331.76 932.392 4334.99 929.033 4338.99 926.642C4343 924.241 4347.57 923.038 4352.7 923.038C4354.25 923.038 4355.64 923.121 4356.86 923.288C4358.1 923.454 4359.33 923.762 4360.55 924.204V935.559C4359.1 935.116 4357.65 934.757 4356.2 934.475C4354.75 934.199 4353.3 934.059 4351.86 934.059C4346.74 934.059 4342.22 935.538 4338.32 938.496C4334.43 941.444 4331.42 945.699 4329.3 951.267V1008.56H4316.95Z" fill="#58595B"/>
<path d="M4395.94 1019.41L4400.8 1008.39L4366.71 924.871H4380.42L4407.46 993.517L4436.71 924.871H4450.07L4408.49 1021.08C4404.91 1029.11 4400.95 1034.9 4396.61 1038.45C4392.28 1042.02 4386.77 1043.81 4380.09 1043.81C4378.52 1043.81 4377.04 1043.73 4375.65 1043.56C4374.26 1043.39 4373.12 1043.19 4372.24 1042.98V1031.79C4373.34 1032.01 4374.43 1032.17 4375.49 1032.29C4376.54 1032.4 4377.79 1032.45 4379.24 1032.45C4383.03 1032.45 4386.26 1031.39 4388.92 1029.27C4391.6 1027.15 4393.94 1023.87 4395.94 1019.41Z" fill="#58595B"/>
</g>
</g>
</g>
</svg>
