<svg width="1172" height="470" viewBox="0 0 1172 470" fill="none" xmlns="http://www.w3.org/2000/svg">
<path d="M449.4 328.552V343.089H415.943V363.722H443.813V378.315H415.943V410.03H396.934V328.522H449.4V328.552Z" fill="#808285"/>
<path d="M541.931 369.274C541.931 375.163 540.909 380.657 538.867 385.735C536.827 390.81 533.97 395.224 530.277 398.978C526.585 402.733 522.139 405.672 516.942 407.776C511.749 409.91 505.984 410.959 499.617 410.959C493.25 410.959 487.481 409.91 482.256 407.776C477.03 405.646 472.556 402.702 468.862 398.978C465.138 395.224 462.284 390.81 460.243 385.735C458.2 380.657 457.179 375.193 457.179 369.274C457.179 363.39 458.2 357.895 460.243 352.816C462.284 347.742 465.138 343.328 468.862 339.604C472.585 335.88 477.03 332.937 482.256 330.835C487.481 328.732 493.25 327.651 499.617 327.651C505.984 327.651 511.717 328.732 516.942 330.865C522.139 332.997 526.585 335.941 530.277 339.662C533.97 343.391 536.827 347.805 538.867 352.878C540.909 357.952 541.931 363.42 541.931 369.274ZM522.561 369.274C522.561 365.254 522.047 361.618 520.998 358.404C519.949 355.189 518.442 352.458 516.495 350.204C514.542 347.955 512.138 346.242 509.313 345.068C506.493 343.868 503.247 343.266 499.643 343.266C495.982 343.266 492.736 343.868 489.885 345.068C487.029 346.272 484.63 347.982 482.676 350.204C480.724 352.458 479.223 355.189 478.172 358.404C477.12 361.618 476.61 365.254 476.61 369.274C476.61 373.33 477.12 376.995 478.172 380.205C479.223 383.419 480.724 386.156 482.676 388.406C484.63 390.658 487.029 392.341 489.885 393.541C492.736 394.715 495.982 395.312 499.643 395.312C503.247 395.312 506.493 394.715 509.313 393.541C512.138 392.373 514.542 390.658 516.495 388.406C518.442 386.156 519.949 383.451 520.998 380.205C522.047 376.995 522.561 373.33 522.561 369.274Z" fill="#808285"/>
<path d="M587.128 395.136C589.652 395.136 591.932 394.714 593.916 393.873C595.899 393.032 597.608 391.827 598.989 390.269C600.37 388.706 601.425 386.785 602.142 384.531C602.864 382.282 603.227 379.727 603.227 376.845V328.551H622.146V376.845C622.146 381.861 621.336 386.426 619.71 390.596C618.09 394.772 615.779 398.376 612.746 401.409C609.713 404.441 606.047 406.784 601.721 408.467C597.401 410.149 592.534 410.99 587.128 410.99C581.691 410.99 576.799 410.149 572.473 408.467C568.147 406.784 564.486 404.441 561.448 401.409C558.415 398.376 556.104 394.803 554.515 390.596C552.921 386.426 552.11 381.83 552.11 376.845V328.551H571.029V376.783C571.029 379.664 571.392 382.22 572.109 384.474C572.832 386.723 573.885 388.644 575.266 390.238C576.648 391.827 578.331 393.032 580.341 393.873C582.325 394.714 584.605 395.136 587.128 395.136Z" fill="#808285"/>
<path d="M648.725 328.672C649.29 328.762 649.774 328.882 650.226 329.093C650.672 329.303 651.093 329.604 651.514 329.963C651.934 330.324 652.386 330.835 652.895 331.465L691.61 380.418C691.459 378.855 691.34 377.322 691.277 375.853C691.189 374.383 691.159 373.002 691.159 371.678V328.551H707.823V410.06H697.977C696.534 410.06 695.303 409.848 694.28 409.401C693.287 408.949 692.3 408.139 691.366 406.934L652.925 358.372C653.045 359.785 653.139 361.166 653.196 362.548C653.259 363.898 653.315 365.192 653.315 366.391V410.092H636.65V328.582H646.621C647.488 328.552 648.179 328.582 648.725 328.672Z" fill="#808285"/>
<path d="M797.5 369.273C797.5 375.162 796.482 380.6 794.435 385.585C792.395 390.57 789.544 394.866 785.846 398.496C782.153 402.131 777.709 404.955 772.515 406.997C767.317 409.038 761.552 410.06 755.185 410.06H723.533V328.551H755.185C761.521 328.551 767.291 329.573 772.515 331.615C777.709 333.657 782.153 336.51 785.846 340.113C789.544 343.748 792.395 348.044 794.435 352.997C796.482 357.952 797.5 363.42 797.5 369.273ZM778.129 369.273C778.129 365.254 777.62 361.619 776.566 358.372C775.517 355.132 774.016 352.37 772.063 350.116C770.11 347.862 767.711 346.122 764.886 344.917C762.061 343.718 758.821 343.089 755.216 343.089H742.571V395.525H755.216C758.821 395.525 762.061 394.922 764.886 393.691C767.711 392.492 770.11 390.747 772.063 388.498C774.016 386.244 775.517 383.481 776.566 380.236C777.62 376.995 778.129 373.33 778.129 369.273Z" fill="#808285"/>
<path d="M881.323 410.06H866.668C865.016 410.06 863.667 409.671 862.612 408.918C861.563 408.165 860.809 407.178 860.389 405.973L855.586 391.77H824.592L819.788 405.973C819.426 407.028 818.677 407.957 817.597 408.799C816.517 409.64 815.193 410.06 813.63 410.06H798.854L830.42 328.551H849.79L881.323 410.06ZM828.95 378.885H851.233L843.724 356.57C843.241 355.158 842.675 353.481 842.011 351.559C841.35 349.632 840.723 347.56 840.089 345.311C839.492 347.592 838.89 349.695 838.229 351.647C837.565 353.6 836.999 355.283 836.427 356.69L828.95 378.885Z" fill="#808285"/>
<path d="M940.396 328.551V343.536H917.452V410.06H898.534V343.536H875.59V328.551H940.396Z" fill="#808285"/>
<path d="M971.176 410.06H952.169V328.551H971.176V410.06Z" fill="#808285"/>
<path d="M1068.96 369.274C1068.96 375.163 1067.94 380.657 1065.9 385.735C1063.86 390.81 1061.01 395.224 1057.31 398.978C1053.62 402.733 1049.17 405.672 1043.98 407.776C1038.78 409.879 1032.99 410.959 1026.65 410.959C1020.32 410.959 1014.52 409.91 1009.29 407.776C1004.07 405.646 999.588 402.702 995.896 398.978C992.172 395.224 989.321 390.81 987.274 385.735C985.234 380.657 984.216 375.193 984.216 369.274C984.216 363.39 985.234 357.895 987.274 352.816C989.321 347.742 992.172 343.328 995.896 339.604C999.619 335.88 1004.07 332.937 1009.29 330.835C1014.52 328.703 1020.29 327.651 1026.65 327.651C1032.99 327.651 1038.75 328.732 1043.98 330.865C1049.21 332.997 1053.62 335.941 1057.31 339.662C1061.01 343.391 1063.86 347.805 1065.9 352.878C1067.94 357.952 1068.96 363.42 1068.96 369.274ZM1049.59 369.274C1049.59 365.254 1049.08 361.618 1048.03 358.404C1046.98 355.189 1045.48 352.458 1043.53 350.204C1041.57 347.955 1039.17 346.242 1036.35 345.068C1033.52 343.868 1030.28 343.266 1026.68 343.266C1023.02 343.266 1019.77 343.868 1016.92 345.068C1014.07 346.272 1011.66 347.982 1009.71 350.204C1007.76 352.458 1006.26 355.189 1005.21 358.404C1004.15 361.618 1003.64 365.254 1003.64 369.274C1003.64 373.33 1004.15 376.995 1005.21 380.205C1006.26 383.419 1007.76 386.156 1009.71 388.406C1011.66 390.658 1014.07 392.341 1016.92 393.541C1019.77 394.715 1023.02 395.312 1026.68 395.312C1030.28 395.312 1033.52 394.715 1036.35 393.541C1039.17 392.373 1041.57 390.658 1043.53 388.406C1045.48 386.156 1046.98 383.451 1048.03 380.205C1049.08 376.965 1049.59 373.33 1049.59 369.274Z" fill="#808285"/>
<path d="M1092.3 328.672C1092.86 328.762 1093.35 328.882 1093.8 329.093C1094.25 329.303 1094.67 329.604 1095.09 329.963C1095.51 330.324 1095.97 330.835 1096.47 331.465L1135.18 380.418C1135.03 378.855 1134.92 377.322 1134.85 375.853C1134.76 374.383 1134.73 373.002 1134.73 371.678V328.551H1151.4V410.06H1141.55C1140.11 410.06 1138.88 409.848 1137.86 409.401C1136.86 408.949 1135.87 408.139 1134.95 406.934L1096.5 358.372C1096.62 359.785 1096.71 361.166 1096.78 362.548C1096.83 363.898 1096.89 365.192 1096.89 366.391V410.092H1080.22V328.582H1090.19C1091.04 328.552 1091.73 328.582 1092.3 328.672Z" fill="#808285"/>
<path d="M0 307.349C0 190.615 162.324 112.591 162.324 0C162.324 57.9326 324.648 190.615 324.648 307.349C324.648 396.994 251.97 469.673 162.324 469.673C72.6775 469.673 0 396.994 0 307.349Z" fill="url(#paint0_radial_552_101)"/>
<path d="M397.354 294.826V177.129H437.987C445.707 177.129 452.283 177.851 457.719 179.322C463.185 180.794 467.659 182.866 471.143 185.599C474.657 188.302 477.21 191.605 478.832 195.45C480.454 199.294 481.264 203.648 481.264 208.484C481.264 211.247 480.844 213.89 480.032 216.413C479.222 218.935 477.96 221.307 476.249 223.5C474.536 225.692 472.374 227.704 469.731 229.477C467.089 231.248 463.966 232.78 460.332 234.041C476.488 237.674 484.599 246.415 484.599 260.259C484.599 265.245 483.638 269.869 481.745 274.105C479.852 278.339 477.09 281.972 473.455 285.066C469.821 288.128 465.347 290.532 460.031 292.273C454.716 294.015 448.649 294.886 441.802 294.886H397.354V294.826ZM419.277 228.094H436.787C444.235 228.094 449.851 226.743 453.724 224.04C457.568 221.338 459.491 217.013 459.491 211.097C459.491 204.97 457.749 200.585 454.295 198.002C450.842 195.42 445.406 194.098 438.018 194.098H419.307V228.094H419.277ZM419.277 243.231V277.738H441.502C445.586 277.738 448.979 277.257 451.712 276.266C454.446 275.275 456.638 273.984 458.32 272.363C459.971 270.741 461.173 268.848 461.894 266.656C462.614 264.494 463.005 262.181 463.005 259.749C463.005 257.196 462.584 254.914 461.773 252.871C460.962 250.829 459.67 249.088 457.959 247.676C456.247 246.264 453.995 245.153 451.292 244.372C448.589 243.621 445.285 243.231 441.442 243.231H419.277Z" fill="#58595B"/>
<path d="M526.975 276.777H574.093V294.856H505.049V177.129H526.944V276.777H526.975Z" fill="#58595B"/>
<path d="M697.255 235.992C697.255 244.612 695.817 252.599 692.934 259.958C690.048 267.316 686.022 273.682 680.798 279.058C675.574 284.434 669.326 288.638 661.999 291.642C654.671 294.645 646.565 296.146 637.674 296.146C628.783 296.146 620.645 294.645 613.286 291.642C605.927 288.638 599.623 284.434 594.399 279.058C589.169 273.682 585.119 267.316 582.231 259.958C579.348 252.599 577.91 244.612 577.91 235.992C577.91 227.372 579.348 219.385 582.231 212.026C585.119 204.668 589.169 198.302 594.399 192.926C599.623 187.551 605.927 183.376 613.286 180.342C620.645 177.339 628.752 175.837 637.674 175.837C646.565 175.837 654.702 177.369 661.999 180.403C669.326 183.436 675.604 187.64 680.798 192.986C685.996 198.331 690.048 204.668 692.934 212.026C695.817 219.354 697.255 227.343 697.255 235.992ZM674.795 235.992C674.795 229.535 673.953 223.739 672.239 218.604C670.526 213.468 668.065 209.113 664.881 205.54C661.666 201.965 657.792 199.233 653.201 197.31C648.605 195.419 643.438 194.457 637.705 194.457C631.935 194.457 626.774 195.419 622.146 197.31C617.519 199.203 613.619 201.936 610.373 205.54C607.132 209.113 604.666 213.468 602.926 218.604C601.186 223.739 600.314 229.535 600.314 235.992C600.314 242.449 601.186 248.245 602.926 253.38C604.666 258.517 607.132 262.84 610.373 266.415C613.619 269.989 617.519 272.692 622.146 274.583C626.774 276.475 631.935 277.436 637.705 277.436C643.47 277.436 648.637 276.475 653.201 274.583C657.792 272.692 661.666 269.958 664.881 266.415C668.095 262.871 670.526 258.517 672.239 253.38C673.922 248.245 674.795 242.449 674.795 235.992Z" fill="#58595B"/>
<path d="M829.039 235.992C829.039 244.612 827.594 252.599 824.713 259.958C821.83 267.316 817.806 273.682 812.581 279.058C807.351 284.434 801.109 288.638 793.782 291.642C786.454 294.645 778.342 296.146 769.451 296.146C760.566 296.146 752.423 294.645 745.07 291.642C737.711 288.638 731.432 284.434 726.176 279.058C720.921 273.682 716.896 267.316 714.014 259.958C711.132 252.599 709.688 244.612 709.688 235.992C709.688 227.372 711.132 219.385 714.014 212.026C716.896 204.668 720.953 198.302 726.176 192.926C731.401 187.551 737.711 183.376 745.07 180.342C752.423 177.339 760.535 175.837 769.451 175.837C778.342 175.837 786.48 177.369 793.782 180.403C801.109 183.436 807.383 187.64 812.581 192.986C817.774 198.331 821.83 204.668 824.713 212.026C827.594 219.354 829.039 227.343 829.039 235.992ZM806.572 235.992C806.572 229.535 805.731 223.739 804.023 218.604C802.309 213.468 799.847 209.113 796.664 205.54C793.449 201.965 789.576 199.233 784.979 197.31C780.383 195.419 775.222 194.457 769.483 194.457C763.718 194.457 758.551 195.419 753.929 197.31C749.302 199.203 745.397 201.936 742.157 205.54C738.91 209.113 736.448 213.468 734.704 218.604C732.964 223.739 732.092 229.535 732.092 235.992C732.092 242.449 732.964 248.245 734.704 253.38C736.448 258.517 738.91 262.84 742.157 266.415C745.397 269.989 749.302 272.692 753.929 274.583C758.551 276.475 763.718 277.436 769.483 277.436C775.247 277.436 780.415 276.475 784.979 274.583C789.576 272.692 793.449 269.958 796.664 266.415C799.879 262.871 802.309 258.517 804.023 253.38C805.731 248.245 806.572 242.449 806.572 235.992Z" fill="#58595B"/>
<path d="M952.439 235.993C952.439 244.613 951.001 252.541 948.113 259.749C945.231 266.956 941.206 273.173 935.982 278.398C930.788 283.625 924.51 287.649 917.182 290.532C909.855 293.414 901.743 294.856 892.857 294.856H847.926V177.129H892.857C901.743 177.129 909.886 178.572 917.182 181.485C924.51 184.398 930.788 188.422 935.982 193.617C941.206 198.813 945.231 204.999 948.113 212.208C951.026 219.446 952.439 227.344 952.439 235.993ZM930.067 235.993C930.067 229.536 929.195 223.74 927.455 218.605C925.71 213.469 923.248 209.144 920.033 205.57C916.825 202.026 912.95 199.294 908.354 197.402C903.759 195.51 898.591 194.549 892.857 194.549H869.971V277.408H892.857C898.622 277.408 903.789 276.446 908.354 274.555C912.919 272.662 916.825 269.929 920.033 266.385C923.248 262.843 925.71 258.487 927.455 253.352C929.195 248.246 930.067 242.45 930.067 235.993Z" fill="#58595B"/>
<path d="M1032.23 193.648C1031.74 194.579 1031.03 195.029 1030.09 195.029C1029.38 195.029 1028.48 194.518 1027.37 193.528C1026.26 192.537 1024.72 191.396 1022.83 190.195C1020.94 188.964 1018.54 187.851 1015.68 186.831C1012.83 185.81 1009.31 185.269 1005.11 185.269C1000.91 185.269 997.245 185.87 994.062 187.07C990.879 188.273 988.205 189.894 986.044 191.966C983.879 194.038 982.259 196.411 981.146 199.144C980.035 201.847 979.464 204.7 979.464 207.703C979.464 211.608 980.305 214.851 981.957 217.403C983.609 219.957 985.8 222.119 988.537 223.92C991.238 225.722 994.332 227.224 997.786 228.426C1001.24 229.657 1004.78 230.858 1008.42 232.059C1012.05 233.26 1015.6 234.582 1019.05 235.994C1022.5 237.435 1025.59 239.237 1028.3 241.399C1031.03 243.562 1033.2 246.234 1034.88 249.418C1036.53 252.601 1037.37 256.535 1037.37 261.25C1037.37 266.086 1036.53 270.621 1034.88 274.885C1033.23 279.15 1030.82 282.844 1027.67 285.998C1024.51 289.15 1020.66 291.643 1016.1 293.445C1011.54 295.277 1006.34 296.178 1000.49 296.178C992.889 296.178 986.34 294.826 980.876 292.154C975.382 289.48 970.605 285.786 966.46 281.131L968.746 277.558C969.405 276.747 970.152 276.326 971.025 276.326C971.509 276.326 972.136 276.657 972.89 277.317C973.637 277.979 974.567 278.76 975.653 279.721C976.732 280.681 978.052 281.702 979.553 282.813C981.084 283.925 982.83 284.946 984.84 285.907C986.854 286.868 989.165 287.648 991.778 288.309C994.389 288.971 997.365 289.301 1000.67 289.301C1005.23 289.301 1009.31 288.61 1012.89 287.229C1016.47 285.847 1019.5 283.955 1021.99 281.582C1024.48 279.21 1026.34 276.357 1027.67 273.083C1028.96 269.809 1029.62 266.296 1029.62 262.542C1029.62 258.487 1028.78 255.124 1027.13 252.482C1025.48 249.839 1023.28 247.646 1020.58 245.874C1017.85 244.102 1014.78 242.63 1011.33 241.429C1007.88 240.228 1004.33 239.057 1000.7 237.915C997.064 236.775 993.522 235.513 990.068 234.101C986.61 232.689 983.52 230.888 980.814 228.696C978.083 226.503 975.923 223.77 974.24 220.467C972.558 217.163 971.747 213.079 971.747 208.124C971.747 204.279 972.469 200.556 973.939 196.981C975.409 193.407 977.543 190.224 980.368 187.492C983.188 184.759 986.672 182.567 990.847 180.884C994.992 179.233 999.739 178.392 1005.08 178.392C1011.06 178.392 1016.44 179.353 1021.18 181.244C1025.92 183.136 1030.28 186.049 1034.18 189.954L1032.23 193.648Z" fill="#58595B"/>
<path d="M1149.86 294.826H1143.44C1142.69 294.826 1142.06 294.615 1141.58 294.225C1141.11 293.804 1140.71 293.293 1140.43 292.633L1126.84 259.177H1070.25L1056.74 292.633C1056.53 293.233 1056.14 293.744 1055.6 294.165C1055.06 294.585 1054.4 294.826 1053.65 294.826H1047.3L1094.43 179.652H1102.72L1149.86 294.826ZM1072.78 252.99H1124.37L1100.85 194.788C1100.47 193.857 1100.11 192.836 1099.72 191.664C1099.33 190.493 1098.96 189.262 1098.57 187.971C1098.18 189.262 1097.83 190.493 1097.44 191.664C1097.05 192.836 1096.68 193.917 1096.29 194.878L1072.78 252.99Z" fill="#58595B"/>
<path d="M375.435 310.413H1171.8" stroke="#9D1D20" stroke-width="2.02807" stroke-miterlimit="10"/>
<path d="M211.638 302.935C211.638 302.935 222.18 297.65 245.304 304.227C262.452 309.122 265.727 315.008 274.285 316.96C282.845 318.912 287.86 316.661 287.86 316.661C287.86 316.661 277.439 332.277 257.108 332.067C234.433 331.826 215.482 314.377 211.638 302.935Z" fill="white"/>
<path d="M131.541 398.407C131.541 398.407 128.929 408.165 111.539 419.221C98.656 427.416 93.0097 426.159 86.883 430.512C80.7573 434.868 79.3759 439.371 79.3759 439.371C79.3759 439.371 75.3213 423.812 87.0333 410.933C100.067 396.574 122.021 394.382 131.541 398.407Z" fill="white"/>
<path d="M136.765 360.538C136.765 360.538 127.245 357.141 108.295 365.16C94.2398 371.106 92.0784 376.481 85.0203 379.036C77.9632 381.591 73.4575 380.21 73.4575 380.21C73.4575 380.21 83.9396 392.398 101.208 390.056C120.429 387.475 134.693 370.629 136.765 360.538Z" fill="white"/>
<path d="M91.3865 396.065C91.3865 396.065 85.1399 393.453 72.1359 398.137C62.4954 401.622 60.8435 405.107 56.0387 406.577C51.2334 408.046 48.2603 406.935 48.2603 406.935C48.2603 406.935 54.837 415.499 66.4895 414.563C79.4337 413.483 89.614 402.765 91.3865 396.065Z" fill="white"/>
<path d="M51.598 352.79C51.598 352.79 46.9734 350.084 36.3118 352.426C28.4134 354.14 26.7614 356.721 22.8271 357.381C18.8932 358.045 16.7007 356.84 16.7007 356.84C16.7007 356.84 20.9653 364.231 30.1854 364.713C40.4564 365.222 49.5259 357.863 51.598 352.79Z" fill="white"/>
<path d="M76.9729 316.84C76.9729 316.84 74.6906 312.846 65.8005 310.022C59.1937 307.92 56.851 309.122 53.6676 307.92C50.4842 306.719 49.3433 304.888 49.3433 304.888C49.3433 304.888 49.3433 312.184 55.9802 316.509C63.3981 321.285 73.2788 319.693 76.9729 316.84Z" fill="white"/>
<path d="M47.2101 317.982C47.2101 317.982 43.0057 313.777 30.9029 313.266C21.9234 312.876 19.4307 315.189 15.0157 314.768C10.601 314.348 8.58887 312.456 8.58887 312.456C8.58887 312.456 11.0815 321.586 20.8422 324.679C31.7437 328.162 43.5463 322.817 47.2101 317.982Z" fill="white"/>
<path d="M41.1758 305.368C41.1758 305.368 38.5329 301.132 28.7423 298.37C21.4743 296.327 18.9816 297.739 15.468 296.539C11.9542 295.336 10.6328 293.414 10.6328 293.414C10.6328 293.414 10.9332 301.373 18.3211 305.787C26.52 310.743 37.2415 308.641 41.1758 305.368Z" fill="white"/>
<path d="M38.8909 290.201C38.8909 290.201 37.2088 285.877 28.7096 281.702C22.403 278.609 19.8801 279.48 16.8774 277.768C13.874 276.056 13.003 274.104 13.003 274.104C13.003 274.104 11.9219 281.432 17.9285 286.718C24.5955 292.634 34.7161 292.513 38.8909 290.201Z" fill="white"/>
<path d="M49.3719 259.058C49.3719 259.058 48.1105 255.004 40.5726 250.648C34.9862 247.436 32.6441 248.066 29.9711 246.324C27.2981 244.582 26.6376 242.721 26.6376 242.721C26.6376 242.721 25.196 249.357 30.3616 254.583C36.1276 260.409 45.4375 260.92 49.3719 259.058Z" fill="white"/>
<path d="M75.231 218.033C75.231 218.033 74.8116 213.889 68.8047 207.702C64.3298 203.107 62.1077 203.047 60.0055 200.675C57.9028 198.302 57.6327 196.38 57.6327 196.38C57.6327 196.38 55.1399 202.177 58.864 208.483C63.0382 215.571 71.3267 218.665 75.231 218.033Z" fill="white"/>
<path d="M73.6398 207.763C73.6398 207.763 71.5079 206.201 70.0361 200.915C68.9544 197.011 69.6451 195.75 69.0154 193.857C68.3846 191.966 67.4233 191.185 67.4233 191.185C67.4233 191.185 71.388 191.665 73.6398 195.75C76.1923 200.315 75.2314 205.84 73.6398 207.763Z" fill="white"/>
<path d="M78.4457 197.642C78.4457 197.642 76.0131 195.3 75.0817 188.392C74.391 183.256 75.4728 181.786 74.9923 179.292C74.5414 176.77 73.4302 175.628 73.4302 175.628C73.4302 175.628 78.3553 176.919 80.5482 182.476C82.9503 188.632 80.7879 195.479 78.4457 197.642Z" fill="white"/>
<path d="M58.4436 219.685C58.4436 219.685 56.3112 219.926 52.5274 217.613C49.7345 215.871 49.4339 214.76 48.0223 213.98C46.6108 213.199 45.5898 213.29 45.5898 213.29C45.5898 213.29 48.2327 211.396 51.8367 212.538C55.8309 213.83 58.3236 217.673 58.4436 219.685Z" fill="white"/>
<path d="M66.5816 391.891C66.5816 391.891 64.2991 395.883 55.4099 398.709C48.8026 400.812 46.4599 399.607 43.2765 400.812C40.0931 402.012 38.9521 403.844 38.9521 403.844C38.9521 403.844 38.9521 396.543 45.589 392.223C52.9769 387.445 62.8876 389.008 66.5816 391.891Z" fill="white"/>
<path d="M60.0357 297.829C60.0357 297.829 57.4532 299.542 51.1766 298.551C46.5515 297.8 45.5005 296.358 43.1879 296.118C40.8754 295.877 39.644 296.629 39.644 296.629C39.644 296.629 41.8964 292.214 47.2121 291.643C53.1584 290.983 58.6543 294.947 60.0357 297.829Z" fill="white"/>
<path d="M29.1904 344.797C29.1904 344.797 27.929 347.02 22.9436 348.615C19.2497 349.783 17.9586 349.123 16.1566 349.783C14.3545 350.448 13.7539 351.466 13.7539 351.466C13.7539 351.466 13.7539 347.384 17.4777 344.979C21.5923 342.305 27.1183 343.208 29.1904 344.797Z" fill="white"/>
<path d="M84.6289 223.981C84.6289 223.981 87.482 220.798 87.4221 212.088C87.3622 205.631 85.6202 203.919 85.7706 200.735C85.9209 197.552 87.1814 196.021 87.1814 196.021C87.1814 196.021 80.7245 198.153 78.8333 205.27C76.7308 213.229 80.9958 221.519 84.6289 223.981Z" fill="white"/>
<path d="M123.974 323.267C123.974 323.267 114.454 326.661 95.5025 318.642C81.4472 312.696 79.2848 307.32 72.2277 304.768C65.1702 302.214 60.665 303.596 60.665 303.596C60.665 303.596 71.147 291.403 88.4149 293.745C107.635 296.328 121.901 313.146 123.974 323.267Z" fill="white"/>
<path d="M77.6324 328.763C77.6324 328.763 73.8489 334.799 59.7934 338.643C49.4023 341.494 45.8288 339.454 40.8133 341.137C35.7681 342.819 33.9058 345.551 33.9058 345.551C33.9058 345.551 34.3861 334.198 44.9876 327.922C56.7605 320.954 72.047 324.048 77.6324 328.763Z" fill="white"/>
<path d="M106.588 289.87C106.588 289.87 99.0786 290.351 87.1563 280.68C78.2963 273.534 77.8758 269.238 73.3417 265.935C68.8066 262.631 65.293 262.722 65.293 262.722C65.293 262.722 75.3233 256.144 87.2162 261.371C100.43 267.197 107.157 282.183 106.588 289.87Z" fill="white"/>
<path d="M94.0936 254.793C94.0936 254.793 86.5855 255.274 74.6622 245.603C65.803 238.456 65.383 234.161 60.8477 230.858C56.313 227.554 52.7993 227.644 52.7993 227.644C52.7993 227.644 62.83 221.067 74.7232 226.292C87.9375 232.119 94.6644 247.104 94.0936 254.793Z" fill="white"/>
<path d="M66.6114 255.814C66.6114 255.814 60.3349 256.205 50.3339 248.126C42.9159 242.119 42.5559 238.546 38.7716 235.783C34.9874 233.02 32.0444 233.079 32.0444 233.079C32.0444 233.079 40.4237 227.583 50.3941 231.969C61.4758 236.833 67.1219 249.387 66.6114 255.814Z" fill="white"/>
<path d="M245.785 336.751C245.785 336.751 249.989 335.16 258.519 338.555C264.855 341.074 265.847 343.448 269.03 344.527C272.213 345.613 274.195 344.948 274.195 344.948C274.195 344.948 269.63 350.474 261.912 349.607C253.323 348.615 246.805 341.256 245.785 336.751Z" fill="white"/>
<path d="M287.048 308.251C287.048 308.251 289.06 312.275 297.68 315.548C304.047 317.951 306.389 316.9 309.483 318.251C312.547 319.603 313.567 321.434 313.567 321.434C313.567 321.434 313.928 314.257 307.651 309.693C300.623 304.616 290.833 305.638 287.048 308.251Z" fill="white"/>
<path d="M308.732 354.649C308.732 354.649 303.416 356 293.565 350.687C286.268 346.751 285.367 343.748 281.672 341.978C277.978 340.207 275.486 340.747 275.486 340.747C275.486 340.747 281.792 334.679 291.013 336.842C301.254 339.246 308.101 349.067 308.732 354.649Z" fill="white"/>
<path d="M156.379 164.036C156.379 164.036 159.113 155.837 174.488 147.249C185.901 140.881 190.677 142.262 196.112 138.84C201.578 135.416 202.989 131.662 202.989 131.662C202.989 131.662 205.693 145.146 195.031 155.598C183.168 167.19 164.308 167.971 156.379 164.036Z" fill="white"/>
<path d="M128.27 140.04C128.27 140.04 125.328 136.106 126.348 126.106C127.099 118.718 129.292 116.946 129.472 113.281C129.653 109.618 128.361 107.726 128.361 107.726C128.361 107.726 135.539 110.879 136.92 119.258C138.482 128.568 132.685 137.608 128.27 140.04Z" fill="white"/>
<path d="M144.367 95.8022C144.367 95.8022 142.925 93.3706 144.096 87.6938C144.967 83.4898 146.348 82.6183 146.679 80.5169C147.01 78.4144 146.378 77.2727 146.378 77.2727C146.378 77.2727 150.313 79.4951 150.612 84.3908C150.944 89.8258 147.069 94.6615 144.367 95.8022Z" fill="white"/>
<path d="M169.353 120.28C169.353 120.28 169.203 115.264 175.899 107.486C180.886 101.72 183.739 101.54 186.05 98.566C188.334 95.6235 188.363 93.2803 188.363 93.2803C188.363 93.2803 192.538 100.128 188.784 107.936C184.609 116.676 174.458 120.851 169.353 120.28Z" fill="white"/>
<path d="M156.379 232.15C156.379 232.15 159.113 240.349 174.488 248.937C185.901 255.305 190.677 253.924 196.112 257.346C201.578 260.77 202.989 264.524 202.989 264.524C202.989 264.524 205.693 251.04 195.031 240.588C183.168 228.996 164.308 228.246 156.379 232.15Z" fill="white"/>
<path d="M201.244 210.016C201.244 210.016 210.585 218.995 237.013 219.626C256.594 220.076 261.97 214.941 271.58 215.692C281.19 216.442 285.725 220.437 285.725 220.437C285.725 220.437 279.869 200.645 258.456 194.248C234.581 187.101 209.023 199.264 201.244 210.016Z" fill="white"/>
<path d="M207.191 242.12C207.191 242.12 212.026 239.628 222.568 242.901C230.375 245.334 231.847 248.187 235.751 249.178C239.656 250.17 241.968 249.088 241.968 249.088C241.968 249.088 237.133 256.565 227.823 256.356C217.462 256.115 208.902 247.616 207.191 242.12Z" fill="white"/>
<path d="M239.295 375.075C239.295 375.075 241.398 376.877 241.848 382.459C242.178 386.603 241.127 387.834 241.398 389.881C241.667 391.89 242.629 392.794 242.629 392.794C242.629 392.794 238.184 391.921 236.502 387.507C234.64 382.579 237.013 376.933 239.295 375.075Z" fill="white"/>
<path d="M235.723 396.003C235.723 396.003 241.73 396.454 249.749 405.584C255.695 412.371 255.424 415.888 258.548 419.071C261.64 422.254 264.434 422.556 264.434 422.556C264.434 422.556 255.575 426.788 246.954 421.263C237.345 415.103 234.162 402.193 235.723 396.003Z" fill="white"/>
<path d="M245.724 380.927C245.724 380.927 246.175 386.935 255.304 394.954C262.091 400.9 265.605 400.629 268.789 403.751C271.972 406.846 272.273 409.64 272.273 409.64C272.273 409.64 276.507 400.78 270.982 392.16C264.795 382.552 251.88 379.369 245.724 380.927Z" fill="white"/>
<path d="M272.692 380.776C272.692 380.776 272.962 384.38 278.458 389.215C282.542 392.793 284.675 392.642 286.597 394.502C288.519 396.366 288.699 398.049 288.699 398.049C288.699 398.049 291.252 392.7 287.918 387.507C284.195 381.736 276.416 379.846 272.692 380.776Z" fill="white"/>
<path d="M254.944 280.112C254.944 280.112 261.701 277.828 274.675 284.135C284.285 288.79 285.636 292.784 290.502 294.826C295.367 296.869 298.521 295.938 298.521 295.938C298.521 295.938 290.802 304.648 278.819 302.575C265.514 300.202 256.084 287.559 254.944 280.112Z" fill="white"/>
<path d="M169.742 196.951C169.742 196.951 174.007 200.375 184.968 199.263C193.107 198.453 195.12 195.93 199.144 195.75C203.168 195.569 205.21 197.072 205.21 197.072C205.21 197.072 201.967 188.782 192.807 187.131C182.596 185.299 172.536 191.906 169.742 196.951Z" fill="white"/>
<path d="M120.788 149.5C120.788 149.5 122.981 146.197 121.419 138.298C120.279 132.441 118.326 131.15 117.906 128.237C117.485 125.354 118.446 123.762 118.446 123.762C118.446 123.762 112.65 126.675 112.08 133.433C111.449 140.97 116.915 147.849 120.788 149.5Z" fill="white"/>
<path d="M111.329 158.36C111.329 158.36 109.016 156.948 107.695 151.663C106.704 147.729 107.545 146.377 106.975 144.486C106.373 142.593 105.353 141.872 105.353 141.872C105.353 141.872 109.767 141.993 112.05 145.987C114.603 150.432 113.221 156.228 111.329 158.36Z" fill="white"/>
<path d="M97.8465 179.112C97.8465 179.112 94.7832 177.25 93.0413 170.223C91.7493 164.997 92.831 163.195 92.0794 160.673C91.2993 158.15 89.918 157.219 89.918 157.219C89.918 157.219 95.7735 157.4 98.8074 162.684C102.201 168.571 100.369 176.259 97.8465 179.112Z" fill="white"/>
<path d="M139.38 109.647C139.38 109.647 140.641 107.725 139.74 103.19C139.08 99.8273 137.938 99.0757 137.728 97.3947C137.518 95.7127 138.058 94.8118 138.058 94.8118C138.058 94.8118 134.725 96.4938 134.395 100.398C133.974 104.722 137.128 108.686 139.38 109.647Z" fill="white"/>
<path d="M219.535 161.273C219.535 161.273 221.307 157.669 229.025 154.966C234.731 152.984 236.863 154.035 239.627 152.894C242.389 151.753 243.261 150.131 243.261 150.131C243.261 150.131 243.681 156.709 238.065 160.672C231.789 165.057 222.959 163.795 219.535 161.273Z" fill="white"/>
<path d="M208.787 139.228C208.787 139.228 211.729 138.688 215.213 133.703C217.796 130.01 217.466 128.268 218.847 126.525C220.229 124.783 221.579 124.484 221.579 124.484C221.579 124.484 216.955 122.861 212.991 126.075C208.546 129.679 207.676 136.256 208.787 139.228Z" fill="white"/>
<path d="M176.502 97.5745C176.502 97.5745 179.444 97.0342 182.928 92.0491C185.511 88.355 185.181 86.6131 186.562 84.8701C187.943 83.1292 189.295 82.8286 189.295 82.8286C189.295 82.8286 184.67 81.2065 180.706 84.4201C176.261 88.0249 175.39 94.6016 176.502 97.5745Z" fill="white"/>
<path d="M174.879 80.6966C174.879 80.6966 173.497 78.0232 175.269 72.2277C176.59 67.9322 178.152 67.1217 178.693 64.9593C179.233 62.7979 178.633 61.5364 178.633 61.5364C178.633 61.5364 182.747 64.1792 182.657 69.3146C182.566 75.0198 177.911 79.7357 174.879 80.6966Z" fill="white"/>
<path d="M188.875 179.743C188.875 179.743 194.01 181.575 204.011 176.92C211.429 173.467 212.51 170.433 216.234 168.961C219.959 167.46 222.391 168.211 222.391 168.211C222.391 168.211 216.595 161.454 207.404 162.895C197.194 164.487 189.836 174.038 188.875 179.743Z" fill="white"/>
<path d="M144.666 131.421C144.666 131.421 151.814 129.348 159.142 116.194C164.577 106.464 163.346 102.259 166.29 97.604C169.232 92.9795 172.506 91.8683 172.506 91.8683C172.506 91.8683 160.703 89.0152 151.694 97.9646C141.693 107.905 141.182 124.363 144.666 131.421Z" fill="white"/>
<path d="M183.466 222.659C183.466 222.659 186.47 227.194 197.281 229.507C205.3 231.219 207.972 229.417 211.846 230.468C215.721 231.519 217.222 233.562 217.222 233.562C217.222 233.562 216.651 224.671 208.423 220.317C199.264 215.481 187.641 218.695 183.466 222.659Z" fill="white"/>
<path d="M241.969 262.872C241.969 262.872 245.933 268.878 260.198 271.912C270.769 274.163 274.313 271.821 279.448 273.203C284.584 274.585 286.536 277.317 286.536 277.317C286.536 277.317 285.785 265.575 274.914 259.809C262.871 253.352 247.494 257.617 241.969 262.872Z" fill="white"/>
<path d="M211.697 265.755C211.697 265.755 213.62 272.602 226.113 279.75C235.392 285.066 239.416 283.924 243.831 286.778C248.246 289.631 249.268 292.783 249.268 292.783C249.268 292.783 252.09 281.521 243.621 272.813C234.221 263.142 218.484 262.481 211.697 265.755Z" fill="white"/>
<path d="M232.268 345.161C232.268 345.161 239.386 345.311 249.416 355.641C256.865 363.301 256.774 367.502 260.619 371.049C264.463 374.591 267.797 374.803 267.797 374.803C267.797 374.803 257.586 380.36 247.044 374.321C235.332 367.626 230.797 352.546 232.268 345.161Z" fill="white"/>
<path d="M231.699 415.617C231.699 415.617 229.116 419.398 230.709 428.528C231.909 435.315 234.132 436.847 234.552 440.212C234.973 443.578 233.831 445.379 233.831 445.379C233.831 445.379 240.588 442.134 241.399 434.355C242.301 425.677 236.114 417.627 231.699 415.617Z" fill="white"/>
<path d="M182.683 215.361C182.683 215.361 176.797 205.601 164.394 201.967C148.086 197.192 138.596 204.009 138.596 204.009C138.596 204.009 143.791 213.169 159.108 217.104C172.923 220.617 182.683 215.361 182.683 215.361Z" fill="white"/>
<path d="M91.2668 195.809C91.2668 195.809 95.1712 189.894 93.8498 181.935C92.1383 171.514 85.7709 167.999 85.7709 167.999C85.7709 167.999 82.0473 173.375 83.9396 183.016C85.6815 191.756 91.2668 195.809 91.2668 195.809Z" fill="white"/>
<path d="M107.155 165.778C107.155 165.778 108.686 160.913 106.224 155.687C103.011 148.84 97.9351 147.669 97.9351 147.669C97.9351 147.669 96.4034 152.114 99.6171 158.391C102.5 164.066 107.155 165.778 107.155 165.778Z" fill="white"/>
<path d="M313.836 287.919C313.836 287.919 309.211 282.123 300.893 280.861C289.991 279.179 284.434 284.375 284.434 284.375C284.434 284.375 288.549 289.81 298.76 291.072C307.98 292.123 313.836 287.919 313.836 287.919Z" fill="white"/>
<path d="M310.834 332.787C310.834 332.787 307.742 327.592 301.164 325.609C292.515 323.026 287.47 326.6 287.47 326.6C287.47 326.6 290.202 331.465 298.311 333.597C305.639 335.55 310.834 332.787 310.834 332.787Z" fill="white"/>
<path d="M306.271 262.783C306.271 262.783 303.538 257.767 297.411 255.695C289.362 252.962 284.468 256.176 284.468 256.176C284.468 256.176 286.87 260.86 294.438 263.143C301.255 265.215 306.271 262.783 306.271 262.783Z" fill="white"/>
<path d="M306.781 271.582C306.781 271.582 303.476 268.578 298.43 268.578C291.794 268.609 288.97 272.212 288.97 272.212C288.97 272.212 291.944 275.065 298.131 274.855C303.687 274.645 306.781 271.582 306.781 271.582Z" fill="white"/>
<path d="M314.977 301.854C314.977 301.854 313.175 299.211 309.661 298.4C305.036 297.319 302.484 299.391 302.484 299.391C302.484 299.391 304.075 301.854 308.43 302.724C312.334 303.475 314.977 301.854 314.977 301.854Z" fill="white"/>
<path d="M298.523 243.801C298.523 243.801 287.861 229.175 267.739 225.181C241.312 219.896 227.256 231.968 227.256 231.968C227.256 231.968 236.746 245.694 261.493 249.808C283.837 253.472 298.523 243.801 298.523 243.801Z" fill="white"/>
<path d="M132.051 343.059C132.051 343.059 118.057 331.617 97.5449 332.817C70.6359 334.409 60.0947 349.607 60.0947 349.607C60.0947 349.607 72.7384 360.507 97.7247 358.197C120.279 356.15 132.051 343.059 132.051 343.059Z" fill="white"/>
<path d="M76.8237 285.366C76.8237 285.366 71.2373 273.864 57.723 268.548C39.9737 261.551 28.6816 268.187 28.6816 268.187C28.6816 268.187 33.5772 278.938 50.275 284.885C65.381 290.291 76.8237 285.366 76.8237 285.366Z" fill="white"/>
<path d="M33.9057 334.679C33.9057 334.679 30.0617 330.294 23.4845 329.604C14.8355 328.703 10.6909 332.968 10.6909 332.968C10.6909 332.968 14.1447 337.081 22.1934 337.683C29.4613 338.223 33.9057 334.679 33.9057 334.679Z" fill="white"/>
<path d="M33.0076 263.414C33.0076 263.414 31.5056 259.87 27.5116 258.068C22.2862 255.695 18.772 257.526 18.772 257.526C18.772 257.526 20.0936 260.831 25.0189 262.873C29.4938 264.704 33.0076 263.414 33.0076 263.414Z" fill="white"/>
<path d="M28.8922 274.554C28.8922 274.554 27.0004 271.19 22.8255 269.84C17.3596 268.068 14.0864 270.26 14.0864 270.26C14.0864 270.26 15.7384 273.414 20.9035 274.884C25.5286 276.236 28.8922 274.554 28.8922 274.554Z" fill="white"/>
<path d="M210.646 185.119C210.646 185.119 217.164 174.337 230.888 170.312C248.908 165.026 259.389 172.565 259.389 172.565C259.389 172.565 253.653 182.685 236.714 187.01C221.459 190.945 210.646 185.119 210.646 185.119Z" fill="white"/>
<path d="M158.542 87.3344C158.542 87.3344 152.235 77.6639 154.367 64.7198C157.19 47.721 167.551 42.0747 167.551 42.0747C167.551 42.0747 173.618 50.8453 170.464 66.5522C167.642 80.7262 158.542 87.3344 158.542 87.3344Z" fill="white"/>
<path d="M207.493 156.138C207.493 156.138 208.994 147.579 216.803 141.602C227.073 133.734 235.662 135.956 235.662 135.956C235.662 135.956 234.491 143.885 224.701 150.882C215.871 157.189 207.493 156.138 207.493 156.138Z" fill="white"/>
<path d="M193.198 113.042C193.198 113.042 193.979 108.538 198.124 105.354C203.56 101.21 208.094 102.381 208.094 102.381C208.094 102.381 207.464 106.555 202.298 110.25C197.613 113.583 193.198 113.042 193.198 113.042Z" fill="white"/>
<path d="M194.341 101.298C194.341 101.298 193.711 98.446 195.393 95.5928C197.585 91.8388 200.558 91.4478 200.558 91.4478C200.558 91.4478 201.188 94.0601 199.027 97.4841C197.075 100.578 194.341 101.298 194.341 101.298Z" fill="white"/>
<path d="M223.231 292.724C223.231 292.724 219.957 281.793 208.875 275.185C194.279 266.476 183.408 270.71 183.408 270.71C183.408 270.71 186.14 280.861 199.985 288.489C212.449 295.397 223.231 292.724 223.231 292.724Z" fill="white"/>
<path d="M302.908 372.758C302.908 372.758 297.473 362.73 285.249 358.524C269.181 352.998 259.391 359.365 259.391 359.365C259.391 359.365 264.166 368.739 279.272 373.392C292.938 377.567 302.908 372.758 302.908 372.758Z" fill="white"/>
<path d="M76.3125 368.827C76.3125 368.827 65.9513 362.548 52.4967 365.254C34.8082 368.827 29.252 379.878 29.252 379.878C29.252 379.878 38.6522 385.912 54.9894 382.07C69.7358 378.585 76.3125 368.827 76.3125 368.827Z" fill="white"/>
<path d="M270.171 418.707C270.171 418.707 270.29 413.125 266.086 408.347C260.59 402.074 254.854 402.401 254.854 402.401C254.854 402.401 254.614 407.568 259.93 413.213C264.705 418.318 270.171 418.707 270.171 418.707Z" fill="white"/>
<path d="M182.683 176.349C182.683 176.349 176.797 186.11 164.394 189.743C148.086 194.518 138.596 187.702 138.596 187.702C138.596 187.702 143.791 178.542 159.108 174.607C172.923 171.094 182.683 176.349 182.683 176.349Z" fill="white"/>
<path d="M223.228 114.963C223.228 114.963 95.0806 126.256 95.0806 212.057C95.0806 264.494 147.096 316.449 147.096 379.156C147.096 407.204 120.487 431.114 98.474 446.127C118.055 455.049 139.738 460.123 162.683 460.123C181.693 460.123 199.832 456.55 216.68 450.272C223.197 432.703 229.264 406.545 229.264 369.518C229.264 294.586 128.115 257.797 128.115 199.444C128.086 142.322 223.228 114.963 223.228 114.963Z" fill="white"/>
<defs>
<radialGradient id="paint0_radial_552_101" cx="0" cy="0" r="1" gradientUnits="userSpaceOnUse" gradientTransform="translate(162.323 234.83) scale(201.873 201.873)">
<stop stop-color="#C22126"/>
<stop offset="1" stop-color="#9D1D20"/>
</radialGradient>
</defs>
</svg>
